<?xml version="1.0" encoding="UTF-8"?>
<!DOCTYPE svg PUBLIC "-//W3C//DTD SVG 1.1//EN" "http://www.w3.org/Graphics/SVG/1.1/DTD/svg11.dtd">
<!-- Creator: CorelDRAW 2017 -->
<svg xmlns="http://www.w3.org/2000/svg" xml:space="preserve" width="124.108mm" height="127.562mm" version="1.1" style="shape-rendering:geometricPrecision; text-rendering:geometricPrecision; image-rendering:optimizeQuality; fill-rule:evenodd; clip-rule:evenodd"
viewBox="0 0 10920.17 11224.11"
 xmlns:xlink="http://www.w3.org/1999/xlink">
 <defs>
  <style type="text/css">
   <![CDATA[
    .str0 {stroke:#FEFEFE;stroke-width:31.04;stroke-linecap:round;stroke-linejoin:round;stroke-miterlimit:22.9256}
    .str1 {stroke:#FEFEFE;stroke-width:31.04;stroke-linecap:round;stroke-linejoin:round;stroke-miterlimit:22.9256}
    .fil1 {fill:none}
    .fil0 {fill:#55BA6B}
    .fil2 {fill:#55BA6B}
   ]]>
  </style>
 </defs>
 <g id="Capa_x0020_1">
  <metadata id="CorelCorpID_0Corel-Layer"/>
  <g>
   <polygon class="fil0" points="5390.56,3451.79 5338.69,3398.81 5290.75,2978.89 4893.97,3315.43 4602.3,3626.88 4675.35,4151.92 4933.54,4521.65 4877.21,4888.04 5008.82,4837.01 5059.56,4994.82 5243.04,4996.77 5191.73,4891.39 5298.24,4735.23 5607.46,5236.58 5370.17,5365.11 5657.36,5473.02 5685.25,5316.05 5816.59,5291.24 5920.31,5397.19 5812.4,5684.39 5838.33,5710.87 5917.8,5633.09 5915.84,5816.55 6387.34,5847.79 6467.08,5743.79 6518.95,5796.76 6519.51,5744.34 6571.93,5744.89 6625.46,5640.63 6600.65,5509.29 6656.43,5195.33 6865.83,5223.78 7076.06,5173.59 7055.44,4649.11 6950.59,4647.99 7084.99,4334.86 7089.46,3915.51 7142.16,3889.86 7118.19,3679.89 7090.86,3784.46 6986.3,3757.13 6961.21,3652.01 6672.62,3675.15 6674.02,3544.1 6412.47,3488.89 6413.02,3436.47 6308.19,3435.35 6280.86,3539.92 5624.22,3663.97 5545.87,3636.92 "/>
   <polygon id="1" class="fil1 str0" points="5390.56,3451.79 5338.69,3398.81 5290.75,2978.89 4893.97,3315.43 4602.3,3626.88 4675.35,4151.92 4933.54,4521.65 4877.21,4888.04 5008.82,4837.01 5059.56,4994.82 5243.04,4996.77 5191.73,4891.39 5298.24,4735.23 5607.46,5236.58 5370.17,5365.11 5657.36,5473.02 5685.25,5316.05 5816.59,5291.24 5920.31,5397.19 5812.4,5684.39 5838.33,5710.87 5917.8,5633.09 5915.84,5816.55 6387.34,5847.79 6467.08,5743.79 6518.95,5796.76 6519.51,5744.34 6571.93,5744.89 6625.46,5640.63 6600.65,5509.29 6656.43,5195.33 6865.83,5223.78 7076.06,5173.59 7055.44,4649.11 6950.59,4647.99 7084.99,4334.86 7089.46,3915.51 7142.16,3889.86 7118.19,3679.89 7090.86,3784.46 6986.3,3757.13 6961.21,3652.01 6672.62,3675.15 6674.02,3544.1 6412.47,3488.89 6413.02,3436.47 6308.19,3435.35 6280.86,3539.92 5624.22,3663.97 5545.87,3636.92 "/>
  </g>
  <g>
   <polygon class="fil0" points="4786.82,8452.04 4734.96,8399.06 4420.72,8369.5 4369.14,8290.31 4001.63,8338.82 4075.8,8759.02 3918.82,8731.14 3890.65,8914.32 3786.09,8887 3731.44,9096.12 4203.5,9074.94 4489.86,9261.48 4410.1,9365.48 4619.5,9393.92 4696.74,9525.81 4801.86,9500.72 4905.85,9580.47 4984.49,9581.31 5140.36,9714.02 5086.54,9844.52 5138.96,9845.08 5138.4,9897.5 5216.76,9924.55 5215.08,10081.8 5136.18,10107.18 5213.68,10212.86 5292.03,10239.91 5345.29,10161.84 5501.99,10215.93 5450.69,10110.53 5951.19,9879.94 5978.23,9801.59 5927.78,9617.57 6162.55,9724.92 6242.02,9647.12 6242.58,9594.71 6399.83,9596.38 6400.67,9517.75 6452.81,9544.52 6479.86,9466.17 6428.55,9360.76 6507.47,9335.4 6455.6,9282.43 6508.03,9282.98 6482.1,9256.5 6535.36,9178.41 6639.64,9231.96 6692.88,9153.88 6718.82,9180.38 6771.8,9128.51 6719.38,9127.95 6746.14,9075.81 6824.22,9129.07 6877.2,9077.21 7008.25,9078.6 7035.29,9000.24 6930.46,8999.13 6905.64,8867.81 6748.94,8813.71 6408.48,8783.87 6435.26,8731.73 5858.92,8699.37 5858.36,8751.8 5913.02,8542.68 6017.29,8596.21 6018.13,8517.59 5782.25,8515.07 5779.73,8750.96 5596.83,8696.58 5491.7,8721.68 5463.81,8878.66 5332.76,8877.26 5305.71,8955.61 5335,8667.58 5203.95,8666.18 5201.44,8902.08 4939.61,8873.07 5045.85,8743.14 4993.7,8716.37 4944.08,8453.72 4839.25,8452.6 "/>
   <polygon id="1" class="fil1 str0" points="4786.82,8452.04 4734.96,8399.06 4420.72,8369.5 4369.14,8290.31 4001.63,8338.82 4075.8,8759.02 3918.82,8731.14 3890.65,8914.32 3786.09,8887 3731.44,9096.12 4203.5,9074.94 4489.86,9261.48 4410.1,9365.48 4619.5,9393.92 4696.74,9525.81 4801.86,9500.72 4905.85,9580.47 4984.49,9581.31 5140.36,9714.02 5086.54,9844.52 5138.96,9845.08 5138.4,9897.5 5216.76,9924.55 5215.08,10081.8 5136.18,10107.18 5213.68,10212.86 5292.03,10239.91 5345.29,10161.84 5501.99,10215.93 5450.69,10110.53 5951.19,9879.94 5978.23,9801.59 5927.78,9617.57 6162.55,9724.92 6242.02,9647.12 6242.58,9594.71 6399.83,9596.38 6400.67,9517.75 6452.81,9544.52 6479.86,9466.17 6428.55,9360.76 6507.47,9335.4 6455.6,9282.43 6508.03,9282.98 6482.1,9256.5 6535.36,9178.41 6639.64,9231.96 6692.88,9153.88 6718.82,9180.38 6771.8,9128.51 6719.38,9127.95 6746.14,9075.81 6824.22,9129.07 6877.2,9077.21 7008.25,9078.6 7035.29,9000.24 6930.46,8999.13 6905.64,8867.81 6748.94,8813.71 6408.48,8783.87 6435.26,8731.73 5858.92,8699.37 5858.36,8751.8 5913.02,8542.68 6017.29,8596.21 6018.13,8517.59 5782.25,8515.07 5779.73,8750.96 5596.83,8696.58 5491.7,8721.68 5463.81,8878.66 5332.76,8877.26 5305.71,8955.61 5335,8667.58 5203.95,8666.18 5201.44,8902.08 4939.61,8873.07 5045.85,8743.14 4993.7,8716.37 4944.08,8453.72 4839.25,8452.6 "/>
  </g>
  <g>
   <polygon class="fil0" points="4932.99,4574.07 4933.54,4521.65 4675.07,4178.13 4602.3,3626.88 2909.23,5076.77 2380.84,5464.34 1355.01,5794.18 829.7,5893.44 646.78,5839.06 622.53,5655.3 492.05,5601.5 494,5418.02 310.8,5389.86 147.68,5938.59 15.51,6042.03 144.89,6200.7 118.12,6252.84 170.54,6253.39 303.54,6071.32 302.7,6149.95 248.9,6280.44 38.65,6330.63 36.97,6487.88 245.26,6621.17 269.23,6831.13 449.36,7147.6 580.97,7096.58 635.62,6887.46 870.67,6968.61 1264.38,6920.37 1367.82,7052.54 1629.37,7107.74 1656.7,7003.19 2021.96,7164.36 2072.42,7348.39 2070.19,7558.06 2096.68,7532.13 2200.96,7585.67 2414.82,7194.76 2466.13,7300.16 2832.51,7356.49 3198.06,7491.44 3306.81,7125.61 3464.07,7127.29 3519.56,6839.54 3886.22,6869.66 4017.83,6818.64 4332.63,6795.78 4306.7,6769.28 4385.89,6717.71 4441.94,6377.54 4494.36,6378.1 4910.37,6697.09 4911.49,6592.24 4677.27,6432.47 4784.07,6250.12 4863.53,6172.32 4915.96,6172.88 4996.54,5990.25 4944.39,5963.49 4945.23,5884.85 5076,5912.46 5103.05,5834.11 5059.56,4994.82 5008.82,4837.01 4877.21,4888.04 "/>
   <polygon id="1" class="fil1 str0" points="4932.99,4574.07 4933.54,4521.65 4675.07,4178.13 4602.3,3626.88 2909.23,5076.77 2380.84,5464.34 1355.01,5794.18 829.7,5893.44 646.78,5839.06 622.53,5655.3 492.05,5601.5 494,5418.02 310.8,5389.86 147.68,5938.59 15.51,6042.03 144.89,6200.7 118.12,6252.84 170.54,6253.39 303.54,6071.32 302.7,6149.95 248.9,6280.44 38.65,6330.63 36.97,6487.88 245.26,6621.17 269.23,6831.13 449.36,7147.6 580.97,7096.58 635.62,6887.46 870.67,6968.61 1264.38,6920.37 1367.82,7052.54 1629.37,7107.74 1656.7,7003.19 2021.96,7164.36 2072.42,7348.39 2070.19,7558.06 2096.68,7532.13 2200.96,7585.67 2414.82,7194.76 2466.13,7300.16 2832.51,7356.49 3198.06,7491.44 3306.81,7125.61 3464.07,7127.29 3519.56,6839.54 3886.22,6869.66 4017.83,6818.64 4332.63,6795.78 4306.7,6769.28 4385.89,6717.71 4441.94,6377.54 4494.36,6378.1 4910.37,6697.09 4911.49,6592.24 4677.27,6432.47 4784.07,6250.12 4863.53,6172.32 4915.96,6172.88 4996.54,5990.25 4944.39,5963.49 4945.23,5884.85 5076,5912.46 5103.05,5834.11 5059.56,4994.82 5008.82,4837.01 4877.21,4888.04 "/>
  </g>
  <g>
   <polygon class="fil0" points="7966.44,333.67 7629.05,15.51 6965.43,794.83 6490.3,1104.33 6205.06,812.95 6207.85,550.85 6261.39,446.56 6313.82,447.13 6314.93,342.29 6181.92,524.36 5935.71,1491.61 5408.99,1721.92 5199.31,1719.69 5313.88,3267.48 5338.69,3398.81 5545.87,3636.92 5624.22,3663.97 6175.74,3565.01 6280.86,3539.92 6308.19,3435.35 6413.02,3436.47 6412.47,3488.89 6674.02,3544.1 6672.62,3675.15 6934.99,3651.72 6986.58,3730.91 7013.08,3704.98 7151.38,3024.92 7151.93,2972.5 7073.31,2971.66 7126,2946.01 7051.01,2604.44 7052.96,2420.98 7209.66,2475.08 7236.99,2370.51 7394.25,2372.18 7446.12,2425.17 7448.35,2215.48 7683.96,2244.2 7768.17,1720.84 7951.64,1722.8 7978.69,1644.45 8082.97,1697.98 8188.09,1672.89 8216.8,1437.29 7981.2,1408.56 8145.16,781.19 8148.23,492.88 "/>
   <polygon id="1" class="fil1 str0" points="7966.44,333.67 7629.05,15.51 6965.43,794.83 6490.3,1104.33 6205.06,812.95 6207.85,550.85 6261.39,446.56 6313.82,447.13 6314.93,342.29 6181.92,524.36 5935.71,1491.61 5408.99,1721.92 5199.31,1719.69 5313.88,3267.48 5338.69,3398.81 5545.87,3636.92 5624.22,3663.97 6175.74,3565.01 6280.86,3539.92 6308.19,3435.35 6413.02,3436.47 6412.47,3488.89 6674.02,3544.1 6672.62,3675.15 6934.99,3651.72 6986.58,3730.91 7013.08,3704.98 7151.38,3024.92 7151.93,2972.5 7073.31,2971.66 7126,2946.01 7051.01,2604.44 7052.96,2420.98 7209.66,2475.08 7236.99,2370.51 7394.25,2372.18 7446.12,2425.17 7448.35,2215.48 7683.96,2244.2 7768.17,1720.84 7951.64,1722.8 7978.69,1644.45 8082.97,1697.98 8188.09,1672.89 8216.8,1437.29 7981.2,1408.56 8145.16,781.19 8148.23,492.88 "/>
  </g>
  <g>
   <polygon class="fil0" points="6949.17,7243.06 7001.31,7269.83 6948.89,7269.27 6868.58,7425.7 6921,7426.26 6919.89,7531.09 7022.49,7741.89 6917.65,7740.77 6888.92,7976.38 7280.96,8085.41 7387.2,7955.48 7362.38,7824.15 7284.03,7797.1 7311.64,7666.33 7415.92,7719.87 7415.35,7772.29 7702,7932.62 7700.61,8063.67 7831.37,8091.28 7909.16,8170.75 8197.75,8147.61 8276.66,8122.23 8278.62,7938.76 8567.49,7889.41 8647.23,7785.41 8547.13,7338.72 8547.7,7286.3 8626.61,7260.93 8658.96,6684.59 8580.89,6631.33 8371.49,6602.89 8370.93,6655.31 8318.51,6654.75 8056.97,6599.53 8031.6,6520.63 7717.36,6491.06 7691.98,6412.16 7901.66,6414.4 7824.43,6282.51 7693.1,6307.32 7565.39,5991.4 7722.38,6019.29 7907.52,5863.98 7802.68,5862.86 7912.26,5418.41 7834.19,5365.16 7702.87,5389.96 7729.64,5337.83 7677.22,5337.27 7653.52,5101.09 7496.81,5047 7288.82,4887.51 7237.79,4755.9 7239.46,4598.65 7055.44,4649.11 7076.06,5173.59 6734.49,5248.59 6812,5354.27 6705.5,5510.41 6757.07,5589.6 6835.71,5590.44 6912.66,5748.53 6650.56,5745.74 6648.32,5955.43 6726.95,5956.26 6621.28,6033.77 6594.23,6112.12 6698.24,6191.87 6617.37,6400.71 6692.65,6716.08 6612.9,6820.07 6584.73,7003.26 6794.98,6953.08 6818.39,7215.45 "/>
   <polygon id="1" class="fil1 str0" points="6949.17,7243.06 7001.31,7269.83 6948.89,7269.27 6868.58,7425.7 6921,7426.26 6919.89,7531.09 7022.49,7741.89 6917.65,7740.77 6888.92,7976.38 7280.96,8085.41 7387.2,7955.48 7362.38,7824.15 7284.03,7797.1 7311.64,7666.33 7415.92,7719.87 7415.35,7772.29 7702,7932.62 7700.61,8063.67 7831.37,8091.28 7909.16,8170.75 8197.75,8147.61 8276.66,8122.23 8278.62,7938.76 8567.49,7889.41 8647.23,7785.41 8547.13,7338.72 8547.7,7286.3 8626.61,7260.93 8658.96,6684.59 8580.89,6631.33 8371.49,6602.89 8370.93,6655.31 8318.51,6654.75 8056.97,6599.53 8031.6,6520.63 7717.36,6491.06 7691.98,6412.16 7901.66,6414.4 7824.43,6282.51 7693.1,6307.32 7565.39,5991.4 7722.38,6019.29 7907.52,5863.98 7802.68,5862.86 7912.26,5418.41 7834.19,5365.16 7702.87,5389.96 7729.64,5337.83 7677.22,5337.27 7653.52,5101.09 7496.81,5047 7288.82,4887.51 7237.79,4755.9 7239.46,4598.65 7055.44,4649.11 7076.06,5173.59 6734.49,5248.59 6812,5354.27 6705.5,5510.41 6757.07,5589.6 6835.71,5590.44 6912.66,5748.53 6650.56,5745.74 6648.32,5955.43 6726.95,5956.26 6621.28,6033.77 6594.23,6112.12 6698.24,6191.87 6617.37,6400.71 6692.65,6716.08 6612.9,6820.07 6584.73,7003.26 6794.98,6953.08 6818.39,7215.45 "/>
  </g>
  <g>
   <polygon class="fil0" points="8187.52,1725.31 7978.69,1644.45 7951.64,1722.8 7768.46,1694.64 7683.96,2244.2 7448.35,2215.48 7446.12,2425.17 7394.25,2372.18 7236.99,2370.51 7209.66,2475.08 7052.96,2420.98 7051.01,2604.44 7126,2946.01 7073.31,2971.66 7151.93,2972.5 7151.38,3024.92 6986.58,3730.91 7090.86,3784.46 7118.19,3679.89 7114.27,4046.83 7297.47,4075 7296.36,4179.85 7453.88,4155.31 7481.21,4050.74 7611.99,4078.35 7639.59,3947.57 8137.32,3979.09 8111.38,3952.6 8137.32,3979.09 8164.35,3900.74 8112.49,3847.76 8086.01,3873.7 8087.68,3716.43 8270.59,3770.81 8533.8,3668.76 8324.69,3614.1 8352.29,3483.34 8456.29,3563.09 8483.62,3458.53 8379.07,3431.2 8408.07,3169.38 8331.67,2958.85 8415.61,2461.71 8496.47,2252.86 8420.63,1989.92 8525.47,1991.04 8526.87,1859.99 8343.95,1805.62 "/>
   <polygon id="1" class="fil1 str0" points="8187.52,1725.31 7978.69,1644.45 7951.64,1722.8 7768.46,1694.64 7683.96,2244.2 7448.35,2215.48 7446.12,2425.17 7394.25,2372.18 7236.99,2370.51 7209.66,2475.08 7052.96,2420.98 7051.01,2604.44 7126,2946.01 7073.31,2971.66 7151.93,2972.5 7151.38,3024.92 6986.58,3730.91 7090.86,3784.46 7118.19,3679.89 7114.27,4046.83 7297.47,4075 7296.36,4179.85 7453.88,4155.31 7481.21,4050.74 7611.99,4078.35 7639.59,3947.57 8137.32,3979.09 8111.38,3952.6 8137.32,3979.09 8164.35,3900.74 8112.49,3847.76 8086.01,3873.7 8087.68,3716.43 8270.59,3770.81 8533.8,3668.76 8324.69,3614.1 8352.29,3483.34 8456.29,3563.09 8483.62,3458.53 8379.07,3431.2 8408.07,3169.38 8331.67,2958.85 8415.61,2461.71 8496.47,2252.86 8420.63,1989.92 8525.47,1991.04 8526.87,1859.99 8343.95,1805.62 "/>
  </g>
  <g>
   <polygon class="fil0" points="5045.85,8743.14 4939.61,8873.07 5201.44,8902.08 5203.95,8666.18 5335,8667.58 5305.71,8955.61 5332.76,8877.26 5463.81,8878.66 5491.7,8721.68 5596.83,8696.58 5779.73,8750.96 5782.25,8515.07 6018.13,8517.59 6017.29,8596.21 5913.02,8542.68 5832.15,8751.52 5858.92,8699.37 6435.26,8731.73 6408.48,8783.87 6748.94,8813.71 6931.58,8894.3 6908.71,8579.5 7118.11,8607.93 7253.36,8216.19 6860.76,8159.58 6917.65,7740.77 6708.8,7659.91 6735.29,7633.98 6631.02,7580.44 6421.89,7525.78 6394.28,7656.56 6498.85,7683.89 6470.96,7840.87 6366.68,7787.33 6235.63,7785.94 6237.31,7628.68 6027.07,7678.86 5896.3,7651.25 5895.74,7703.68 5790.89,7702.56 5790.34,7754.98 5737.92,7754.42 5688.29,7491.76 5582.06,7621.69 5476.94,7646.78 4953.85,7536.36 4954.41,7483.95 4614.79,7375.48 4561.82,7427.34 4559.86,7610.8 4480.95,7636.17 4400.09,7845.01 4161.97,8052.19 4420.72,8369.5 4682.82,8372.29 4786.82,8452.04 4917.86,8453.43 4993.7,8716.37 "/>
   <polygon id="1" class="fil1 str0" points="5045.85,8743.14 4939.61,8873.07 5201.44,8902.08 5203.95,8666.18 5335,8667.58 5305.71,8955.61 5332.76,8877.26 5463.81,8878.66 5491.7,8721.68 5596.83,8696.58 5779.73,8750.96 5782.25,8515.07 6018.13,8517.59 6017.29,8596.21 5913.02,8542.68 5832.15,8751.52 5858.92,8699.37 6435.26,8731.73 6408.48,8783.87 6748.94,8813.71 6931.58,8894.3 6908.71,8579.5 7118.11,8607.93 7253.36,8216.19 6860.76,8159.58 6917.65,7740.77 6708.8,7659.91 6735.29,7633.98 6631.02,7580.44 6421.89,7525.78 6394.28,7656.56 6498.85,7683.89 6470.96,7840.87 6366.68,7787.33 6235.63,7785.94 6237.31,7628.68 6027.07,7678.86 5896.3,7651.25 5895.74,7703.68 5790.89,7702.56 5790.34,7754.98 5737.92,7754.42 5688.29,7491.76 5582.06,7621.69 5476.94,7646.78 4953.85,7536.36 4954.41,7483.95 4614.79,7375.48 4561.82,7427.34 4559.86,7610.8 4480.95,7636.17 4400.09,7845.01 4161.97,8052.19 4420.72,8369.5 4682.82,8372.29 4786.82,8452.04 4917.86,8453.43 4993.7,8716.37 "/>
  </g>
  <g>
   <polygon class="fil0" points="6950.59,4647.99 7239.46,4598.65 7396.17,4652.74 7371.36,4521.41 7580.76,4549.85 7661.62,4341.01 7714.04,4341.56 7741.09,4263.22 7792.95,4316.19 7819.44,4290.27 7767.58,4237.28 7795.19,4106.52 7481.21,4050.74 7453.88,4155.31 7296.36,4179.85 7297.47,4075 7114.27,4046.83 7085.27,4308.65 7004.14,4543.71 "/>
   <polygon id="1" class="fil1 str0" points="6950.59,4647.99 7239.46,4598.65 7396.17,4652.74 7371.36,4521.41 7580.76,4549.85 7661.62,4341.01 7714.04,4341.56 7741.09,4263.22 7792.95,4316.19 7819.44,4290.27 7767.58,4237.28 7795.19,4106.52 7481.21,4050.74 7453.88,4155.31 7296.36,4179.85 7297.47,4075 7114.27,4046.83 7085.27,4308.65 7004.14,4543.71 "/>
  </g>
  <g>
   <polygon class="fil0" points="635.62,6887.46 580.97,7096.58 449.36,7147.6 398.05,7042.21 318.58,7120 157.69,7459.05 262.53,7460.17 462.16,8405.96 798.15,8855.17 1629.62,9545.57 1682.87,9467.49 1787.71,9468.61 1868.57,9259.76 2026.39,9209.03 2290.45,9028.34 2318.89,8818.94 2266.75,8792.18 2267.59,8713.54 2424.56,8741.43 2452.45,8584.44 2531.08,8585.28 2557.85,8533.15 2741.33,8535.11 2740.76,8587.51 3002.03,8668.94 3107.7,8591.43 3342.2,8724.99 3448.72,8568.84 3971.51,8705.48 4024.49,8653.62 3972.63,8600.64 3975.15,8364.75 3476.04,8464.29 3639.44,7889.33 3324.92,7885.99 3172.12,7464.96 2727.96,7329.16 2465.85,7326.37 2414.54,7220.97 2361.85,7246.62 2200.96,7585.67 2096.68,7532.13 2070.19,7558.06 2072.42,7348.39 2021.12,7242.99 2047.62,7217.05 1656.7,7003.19 1629.37,7107.74 1367.82,7052.54 1264.38,6920.37 870.67,6968.61 "/>
   <polygon id="1" class="fil1 str0" points="635.62,6887.46 580.97,7096.58 449.36,7147.6 398.05,7042.21 318.58,7120 157.69,7459.05 262.53,7460.17 462.16,8405.96 798.15,8855.17 1629.62,9545.57 1682.87,9467.49 1787.71,9468.61 1868.57,9259.76 2026.39,9209.03 2290.45,9028.34 2318.89,8818.94 2266.75,8792.18 2267.59,8713.54 2424.56,8741.43 2452.45,8584.44 2531.08,8585.28 2557.85,8533.15 2741.33,8535.11 2740.76,8587.51 3002.03,8668.94 3107.7,8591.43 3342.2,8724.99 3448.72,8568.84 3971.51,8705.48 4024.49,8653.62 3972.63,8600.64 3975.15,8364.75 3476.04,8464.29 3639.44,7889.33 3324.92,7885.99 3172.12,7464.96 2727.96,7329.16 2465.85,7326.37 2414.54,7220.97 2361.85,7246.62 2200.96,7585.67 2096.68,7532.13 2070.19,7558.06 2072.42,7348.39 2021.12,7242.99 2047.62,7217.05 1656.7,7003.19 1629.37,7107.74 1367.82,7052.54 1264.38,6920.37 870.67,6968.61 "/>
  </g>
  <g>
   <polygon class="fil0" points="5474.46,5418.66 5370.17,5365.11 5607.46,5236.58 5323.62,4814.15 5324.45,4735.52 5245.27,4787.1 5271.2,4813.59 5191.73,4891.39 5243.04,4996.77 5059.56,4994.82 5107.24,5440.95 5102.21,5912.73 4944.95,5911.06 4944.39,5963.49 4996.54,5990.25 4915.96,6172.88 4863.53,6172.32 4784.07,6250.12 4677.27,6432.47 4911.49,6592.24 4910.37,6697.09 4494.36,6378.1 4441.94,6377.54 4385.89,6717.71 4306.97,6743.09 4332.63,6795.78 4044.04,6818.92 4171.47,7161.04 4378.35,7425.38 4271.28,7633.95 4192.36,7659.31 4190.97,7790.36 4112.06,7815.74 4267.64,7974.67 4400.09,7845.01 4453.63,7740.74 4427.7,7714.24 4507.17,7636.45 4559.58,7637.02 4561.82,7427.34 4614.79,7375.48 4954.41,7483.95 4953.85,7536.36 5476.94,7646.78 5582.06,7621.69 5688.29,7491.76 5737.92,7754.42 5790.34,7754.98 5790.89,7702.56 5895.74,7703.68 5896.3,7651.25 6053.27,7679.14 6027.34,7652.65 6237.31,7628.68 6235.63,7785.94 6366.68,7787.33 6470.96,7840.87 6498.57,7710.1 6394,7682.77 6421.89,7525.78 6631.02,7580.44 6735.29,7633.98 6708.8,7659.91 6917.65,7740.77 7022.49,7741.89 6946.1,7531.37 6919.6,7557.3 6946.65,7478.95 6921,7426.26 6868.58,7425.7 6975.1,7269.55 6818.39,7215.45 6794.98,6953.08 6584.73,7003.26 6612.9,6820.07 6692.94,6689.86 6617.37,6400.71 6698.24,6191.87 6594.23,6112.12 6621.28,6033.77 6726.95,5956.26 6648.32,5955.43 6650.56,5745.74 6912.66,5748.53 6835.71,5590.44 6757.07,5589.6 6705.5,5510.41 6812,5354.27 6734.49,5248.59 6865.83,5223.78 6656.43,5195.33 6600.65,5509.29 6625.46,5640.63 6572.49,5692.49 6598.42,5718.96 6571.65,5771.11 6572.21,5718.69 6519.51,5744.34 6518.95,5796.76 6467.08,5743.79 6387.34,5847.79 5915.84,5816.55 5917.8,5633.09 5838.33,5710.87 5812.4,5684.39 5920.31,5397.19 5816.59,5291.24 5685.25,5316.05 5657.36,5473.02 "/>
   <polygon id="1" class="fil1 str0" points="5474.46,5418.66 5370.17,5365.11 5607.46,5236.58 5323.62,4814.15 5324.45,4735.52 5245.27,4787.1 5271.2,4813.59 5191.73,4891.39 5243.04,4996.77 5059.56,4994.82 5107.24,5440.95 5102.21,5912.73 4944.95,5911.06 4944.39,5963.49 4996.54,5990.25 4915.96,6172.88 4863.53,6172.32 4784.07,6250.12 4677.27,6432.47 4911.49,6592.24 4910.37,6697.09 4494.36,6378.1 4441.94,6377.54 4385.89,6717.71 4306.97,6743.09 4332.63,6795.78 4044.04,6818.92 4171.47,7161.04 4378.35,7425.38 4271.28,7633.95 4192.36,7659.31 4190.97,7790.36 4112.06,7815.74 4267.64,7974.67 4400.09,7845.01 4453.63,7740.74 4427.7,7714.24 4507.17,7636.45 4559.58,7637.02 4561.82,7427.34 4614.79,7375.48 4954.41,7483.95 4953.85,7536.36 5476.94,7646.78 5582.06,7621.69 5688.29,7491.76 5737.92,7754.42 5790.34,7754.98 5790.89,7702.56 5895.74,7703.68 5896.3,7651.25 6053.27,7679.14 6027.34,7652.65 6237.31,7628.68 6235.63,7785.94 6366.68,7787.33 6470.96,7840.87 6498.57,7710.1 6394,7682.77 6421.89,7525.78 6631.02,7580.44 6735.29,7633.98 6708.8,7659.91 6917.65,7740.77 7022.49,7741.89 6946.1,7531.37 6919.6,7557.3 6946.65,7478.95 6921,7426.26 6868.58,7425.7 6975.1,7269.55 6818.39,7215.45 6794.98,6953.08 6584.73,7003.26 6612.9,6820.07 6692.94,6689.86 6617.37,6400.71 6698.24,6191.87 6594.23,6112.12 6621.28,6033.77 6726.95,5956.26 6648.32,5955.43 6650.56,5745.74 6912.66,5748.53 6835.71,5590.44 6757.07,5589.6 6705.5,5510.41 6812,5354.27 6734.49,5248.59 6865.83,5223.78 6656.43,5195.33 6600.65,5509.29 6625.46,5640.63 6572.49,5692.49 6598.42,5718.96 6571.65,5771.11 6572.21,5718.69 6519.51,5744.34 6518.95,5796.76 6467.08,5743.79 6387.34,5847.79 5915.84,5816.55 5917.8,5633.09 5838.33,5710.87 5812.4,5684.39 5920.31,5397.19 5816.59,5291.24 5685.25,5316.05 5657.36,5473.02 "/>
  </g>
  <g>
   <polygon class="fil0" points="4017.83,6818.64 3886.22,6869.66 3519.56,6839.54 3490.27,7127.57 3306.81,7125.61 3197.22,7570.07 3324.92,7885.99 3639.44,7889.33 3476.04,8464.29 3975.15,8364.75 3972.63,8600.64 4024.49,8653.62 3971.51,8705.48 3448.72,8568.84 3396.02,8594.5 3342.2,8724.99 3107.7,8591.43 3002.03,8668.94 2740.49,8613.72 2741.33,8535.11 2557.85,8533.15 2531.08,8585.28 2452.45,8584.44 2424.56,8741.43 2267.59,8713.54 2266.75,8792.18 2318.89,8818.94 2290.45,9028.34 2211.53,9053.72 2079.08,9183.37 1868.85,9233.56 1787.71,9468.61 1682.87,9467.49 1629.62,9545.57 1655.55,9572.05 2075.46,9524.1 1991.81,9995.03 2226.86,10076.19 2145.44,10337.44 2353.44,10496.94 2405.86,10497.5 2459.39,10393.21 2642.59,10421.38 2591.57,10289.78 2828.29,10213.66 2906.09,10293.13 3010.92,10294.24 3329.91,9878.24 3305.65,9694.48 3409.94,9748.02 3438.39,9538.62 3755.42,9306.08 3810.07,9096.95 3731.44,9096.12 3786.09,8887 3890.65,8914.32 3918.82,8731.14 4075.8,8759.02 4001.63,8338.82 4369.14,8290.31 4188.17,8052.47 4267.64,7974.67 4216.33,7869.27 4085.86,7815.46 4190.97,7790.36 4192.36,7659.31 4271.28,7633.95 4378.35,7425.38 4171.47,7161.04 4044.04,6818.92 "/>
   <polygon id="1" class="fil1 str0" points="4017.83,6818.64 3886.22,6869.66 3519.56,6839.54 3490.27,7127.57 3306.81,7125.61 3197.22,7570.07 3324.92,7885.99 3639.44,7889.33 3476.04,8464.29 3975.15,8364.75 3972.63,8600.64 4024.49,8653.62 3971.51,8705.48 3448.72,8568.84 3396.02,8594.5 3342.2,8724.99 3107.7,8591.43 3002.03,8668.94 2740.49,8613.72 2741.33,8535.11 2557.85,8533.15 2531.08,8585.28 2452.45,8584.44 2424.56,8741.43 2267.59,8713.54 2266.75,8792.18 2318.89,8818.94 2290.45,9028.34 2211.53,9053.72 2079.08,9183.37 1868.85,9233.56 1787.71,9468.61 1682.87,9467.49 1629.62,9545.57 1655.55,9572.05 2075.46,9524.1 1991.81,9995.03 2226.86,10076.19 2145.44,10337.44 2353.44,10496.94 2405.86,10497.5 2459.39,10393.21 2642.59,10421.38 2591.57,10289.78 2828.29,10213.66 2906.09,10293.13 3010.92,10294.24 3329.91,9878.24 3305.65,9694.48 3409.94,9748.02 3438.39,9538.62 3755.42,9306.08 3810.07,9096.95 3731.44,9096.12 3786.09,8887 3890.65,8914.32 3918.82,8731.14 4075.8,8759.02 4001.63,8338.82 4369.14,8290.31 4188.17,8052.47 4267.64,7974.67 4216.33,7869.27 4085.86,7815.46 4190.97,7790.36 4192.36,7659.31 4271.28,7633.95 4378.35,7425.38 4171.47,7161.04 4044.04,6818.92 "/>
  </g>
  <g>
   <polygon class="fil0" points="7762.47,9637.11 7739.07,9374.73 7452.98,9161.98 7533,9031.76 7402.51,8977.95 7221.28,8766.32 7090.79,8712.5 7090.22,8764.92 6932.97,8763.24 6931.58,8894.3 6905.64,8867.81 6904.25,8998.85 7009.09,8999.97 7008.25,9078.6 6877.2,9077.21 6824.22,9129.07 6772.35,9076.09 6719.66,9101.74 6771.8,9128.51 6718.82,9180.38 6693.16,9127.67 6639.91,9205.74 6561.57,9178.7 6482.1,9256.5 6508.03,9282.98 6455.6,9282.43 6507.47,9335.4 6428.55,9360.76 6480.41,9413.75 6479.02,9544.8 6426.88,9518.03 6400.11,9570.17 6662.22,9572.97 6608.68,9677.24 6687.3,9678.08 6474.55,9964.16 6422.13,9963.6 6421.58,10016.01 6602.53,10253.86 6576.05,10279.79 6654.68,10280.64 6708.21,10176.35 6604.77,10044.18 6710.44,9966.68 6995.69,10258.05 7152.11,10338.36 7205.09,10286.5 7205.92,10207.86 7310.49,10235.19 7287.63,9920.39 7497.31,9922.63 7551.12,9792.13 7630.03,9766.76 7760.52,9820.58 "/>
   <polygon id="1" class="fil1 str0" points="7762.47,9637.11 7739.07,9374.73 7452.98,9161.98 7533,9031.76 7402.51,8977.95 7221.28,8766.32 7090.79,8712.5 7090.22,8764.92 6932.97,8763.24 6931.58,8894.3 6905.64,8867.81 6904.25,8998.85 7009.09,8999.97 7008.25,9078.6 6877.2,9077.21 6824.22,9129.07 6772.35,9076.09 6719.66,9101.74 6771.8,9128.51 6718.82,9180.38 6693.16,9127.67 6639.91,9205.74 6561.57,9178.7 6482.1,9256.5 6508.03,9282.98 6455.6,9282.43 6507.47,9335.4 6428.55,9360.76 6480.41,9413.75 6479.02,9544.8 6426.88,9518.03 6400.11,9570.17 6662.22,9572.97 6608.68,9677.24 6687.3,9678.08 6474.55,9964.16 6422.13,9963.6 6421.58,10016.01 6602.53,10253.86 6576.05,10279.79 6654.68,10280.64 6708.21,10176.35 6604.77,10044.18 6710.44,9966.68 6995.69,10258.05 7152.11,10338.36 7205.09,10286.5 7205.92,10207.86 7310.49,10235.19 7287.63,9920.39 7497.31,9922.63 7551.12,9792.13 7630.03,9766.76 7760.52,9820.58 "/>
  </g>
  <g>
   <polygon class="fil0" points="9974.21,6252.98 9922.34,6200 9895.3,6278.36 9634.03,6196.93 9500.2,6457.64 9159.74,6427.8 9207.97,6821.5 9417.93,6797.53 9363.56,6980.44 8657.84,6789.43 8626.89,7234.72 8600.11,7286.86 8547.7,7286.3 8647.23,7785.41 8620.18,7863.77 8567.49,7889.41 8304.83,7939.04 8276.66,8122.23 8350.55,8568.65 8245.7,8567.53 8295.34,8830.19 8085.1,8880.38 8110.46,8959.28 8240.68,9039.3 8240.12,9091.73 8187.7,9091.16 8133.88,9221.66 8159.25,9300.57 8080.63,9299.73 8078.68,9483.2 7946.5,9586.65 8024.3,9666.1 7968.81,9953.86 8153.11,9877.19 8204.7,9956.38 8125.23,10034.16 8334.35,10088.82 8387.06,10063.16 8491.33,10116.71 8675.08,10092.45 8674.53,10144.87 8752.88,10171.92 8855.76,10356.51 8934.11,10383.56 9040.35,10253.63 9118.98,10254.46 9353.19,10414.22 9353.75,10361.82 9432.66,10336.44 9354.87,10256.97 9305.23,9994.32 9332.29,9915.97 9436.85,9943.29 9565.94,10128.15 9722.08,10234.67 9802.12,10104.46 9983.62,10289.89 10194.99,10134.86 10349.45,10398.64 10510.63,10033.37 10670.11,9825.36 10751.81,9537.89 10807.31,9250.14 10467.98,9115.46 10442.32,9062.76 10786.68,8725.66 10739.28,8253.32 10424.77,8249.98 10401.35,7987.58 10506.19,7988.7 10456,7778.47 10482.49,7752.54 10560.29,7832.01 10612.71,7832.56 10614.38,7675.3 10746.82,7545.66 10904.65,7494.91 10618.02,7334.57 10619.41,7203.52 10410,7175.08 10437.61,7044.31 10385.19,7043.75 10387.98,6781.65 10440.4,6782.21 10468.28,6625.23 9866.58,6513.96 9947.71,6278.91 "/>
   <polygon id="1" class="fil1 str0" points="9974.21,6252.98 9922.34,6200 9895.3,6278.36 9634.03,6196.93 9500.2,6457.64 9159.74,6427.8 9207.97,6821.5 9417.93,6797.53 9363.56,6980.44 8657.84,6789.43 8626.89,7234.72 8600.11,7286.86 8547.7,7286.3 8647.23,7785.41 8620.18,7863.77 8567.49,7889.41 8304.83,7939.04 8276.66,8122.23 8350.55,8568.65 8245.7,8567.53 8295.34,8830.19 8085.1,8880.38 8110.46,8959.28 8240.68,9039.3 8240.12,9091.73 8187.7,9091.16 8133.88,9221.66 8159.25,9300.57 8080.63,9299.73 8078.68,9483.2 7946.5,9586.65 8024.3,9666.1 7968.81,9953.86 8153.11,9877.19 8204.7,9956.38 8125.23,10034.16 8334.35,10088.82 8387.06,10063.16 8491.33,10116.71 8675.08,10092.45 8674.53,10144.87 8752.88,10171.92 8855.76,10356.51 8934.11,10383.56 9040.35,10253.63 9118.98,10254.46 9353.19,10414.22 9353.75,10361.82 9432.66,10336.44 9354.87,10256.97 9305.23,9994.32 9332.29,9915.97 9436.85,9943.29 9565.94,10128.15 9722.08,10234.67 9802.12,10104.46 9983.62,10289.89 10194.99,10134.86 10349.45,10398.64 10510.63,10033.37 10670.11,9825.36 10751.81,9537.89 10807.31,9250.14 10467.98,9115.46 10442.32,9062.76 10786.68,8725.66 10739.28,8253.32 10424.77,8249.98 10401.35,7987.58 10506.19,7988.7 10456,7778.47 10482.49,7752.54 10560.29,7832.01 10612.71,7832.56 10614.38,7675.3 10746.82,7545.66 10904.65,7494.91 10618.02,7334.57 10619.41,7203.52 10410,7175.08 10437.61,7044.31 10385.19,7043.75 10387.98,6781.65 10440.4,6782.21 10468.28,6625.23 9866.58,6513.96 9947.71,6278.91 "/>
  </g>
  <g>
   <polygon class="fil0" points="8456.29,3563.09 8352.29,3483.34 8324.69,3614.1 8533.8,3668.76 8270.59,3770.81 8087.68,3716.43 8061.2,3742.36 8113.61,3742.93 8060.63,3794.79 8112.49,3847.76 8086.01,3873.7 8112.49,3847.76 8164.35,3900.74 8137.32,3979.09 7639.59,3947.57 7611.99,4078.35 7795.19,4106.52 7767.86,4211.08 7819.44,4290.27 7792.95,4316.19 7741.09,4263.22 7740.53,4315.63 7661.62,4341.01 7580.76,4549.85 7371.36,4521.41 7396.17,4652.74 7239.46,4598.65 7237.79,4755.9 7288.82,4887.51 7470.6,5046.73 7653.52,5101.09 7702.87,5389.96 7834.19,5365.16 7886.06,5418.13 7802.96,5836.65 7881.31,5863.71 7722.38,6019.29 7565.67,5965.19 7693.1,6307.32 7824.43,6282.51 7927.87,6414.68 7691.98,6412.16 7717.63,6464.86 8031.6,6520.63 8056.97,6599.53 8344.71,6655.03 8371.49,6602.89 8580.89,6631.33 8658.96,6684.59 8772.18,5899.4 8486.94,5608.03 8623.85,5059.01 8754.07,5139.03 8780.55,5113.1 8730.64,4876.66 8626.08,4849.33 8626.64,4796.91 8735.4,4431.08 8840.52,4406 8788.37,4379.22 8841.63,4301.16 8842.75,4196.32 8763.83,4221.68 8635.57,3958.18 8609.09,3984.11 8612.71,3643.38 "/>
   <polygon id="1" class="fil1 str0" points="8456.29,3563.09 8352.29,3483.34 8324.69,3614.1 8533.8,3668.76 8270.59,3770.81 8087.68,3716.43 8061.2,3742.36 8113.61,3742.93 8060.63,3794.79 8112.49,3847.76 8086.01,3873.7 8112.49,3847.76 8164.35,3900.74 8137.32,3979.09 7639.59,3947.57 7611.99,4078.35 7795.19,4106.52 7767.86,4211.08 7819.44,4290.27 7792.95,4316.19 7741.09,4263.22 7740.53,4315.63 7661.62,4341.01 7580.76,4549.85 7371.36,4521.41 7396.17,4652.74 7239.46,4598.65 7237.79,4755.9 7288.82,4887.51 7470.6,5046.73 7653.52,5101.09 7702.87,5389.96 7834.19,5365.16 7886.06,5418.13 7802.96,5836.65 7881.31,5863.71 7722.38,6019.29 7565.67,5965.19 7693.1,6307.32 7824.43,6282.51 7927.87,6414.68 7691.98,6412.16 7717.63,6464.86 8031.6,6520.63 8056.97,6599.53 8344.71,6655.03 8371.49,6602.89 8580.89,6631.33 8658.96,6684.59 8772.18,5899.4 8486.94,5608.03 8623.85,5059.01 8754.07,5139.03 8780.55,5113.1 8730.64,4876.66 8626.08,4849.33 8626.64,4796.91 8735.4,4431.08 8840.52,4406 8788.37,4379.22 8841.63,4301.16 8842.75,4196.32 8763.83,4221.68 8635.57,3958.18 8609.09,3984.11 8612.71,3643.38 "/>
  </g>
  <g>
   <polygon class="fil2" points="7363.5,7719.31 7311.64,7666.33 7284.03,7797.1 7362.38,7824.15 7387.2,7955.48 7280.96,8085.41 6888.92,7976.38 6860.76,8159.58 7253.63,8189.98 7118.11,8607.93 6934.92,8579.78 6907.32,8710.54 6985.39,8763.8 7090.22,8764.92 7090.79,8712.5 7221.28,8766.32 7402.51,8977.95 7533,9031.76 7452.98,9161.98 7739.07,9374.73 7760.52,9820.58 7630.03,9766.76 7551.12,9792.13 7497.31,9922.63 7287.63,9920.39 7310.77,10208.98 7205.92,10207.86 7205.09,10286.5 7152.11,10338.36 6995.69,10258.05 6710.16,9992.89 6604.77,10044.18 6708.21,10176.35 6654.96,10254.43 6576.05,10279.79 6601.42,10358.71 6443.87,10383.23 6519.99,10619.97 6650.77,10647.57 6782.93,10544.13 6993.17,10493.94 7097.73,10521.27 7203.13,10469.97 7202.01,10574.8 7254.44,10575.37 7306.02,10654.56 7172.73,10862.84 7199.23,10836.91 7277.3,10890.17 7222.92,11073.08 7301.55,11073.92 7300.43,11178.75 7378.78,11205.8 7379.34,11153.38 7640.89,11208.59 7668.22,11104.03 7720.08,11157.01 7825.47,11105.71 7903.26,11185.18 7955.69,11185.73 7982.74,11107.38 8061.64,11082.02 8062.2,11029.6 8245.39,11057.76 8298.37,11005.9 8272.99,10926.98 8351.9,10901.61 8326.54,10822.7 8432.21,10745.19 8406.28,10718.7 8615.68,10747.14 8667.54,10800.12 8614.29,10878.19 8666.7,10878.75 8691.52,11010.09 8770.71,10958.5 8772.11,10827.45 8516.7,10195.61 8464.56,10168.85 8491.05,10142.92 8386.77,10089.38 8203.02,10113.63 8203.58,10061.21 8124.94,10060.37 8204.42,9982.59 8153.11,9877.19 7968.53,9980.08 8024.3,9666.1 7946.5,9586.65 8051.9,9535.34 8054.42,9299.45 8159.53,9274.36 8133.6,9247.87 8240.68,9039.3 8110.18,8985.49 8085.1,8880.38 8295.05,8856.4 8245.7,8567.53 8350.55,8568.65 8276.66,8122.23 8224.52,8095.47 8223.96,8147.88 7857.02,8143.98 7779.23,8064.5 7700.61,8063.67 7702,7932.62 7415.35,7772.29 7415.92,7719.87 "/>
   <polygon id="1" class="fil1 str1" points="7363.5,7719.31 7311.64,7666.33 7284.03,7797.1 7362.38,7824.15 7387.2,7955.48 7280.96,8085.41 6888.92,7976.38 6860.76,8159.58 7253.63,8189.98 7118.11,8607.93 6934.92,8579.78 6907.32,8710.54 6985.39,8763.8 7090.22,8764.92 7090.79,8712.5 7221.28,8766.32 7402.51,8977.95 7533,9031.76 7452.98,9161.98 7739.07,9374.73 7760.52,9820.58 7630.03,9766.76 7551.12,9792.13 7497.31,9922.63 7287.63,9920.39 7310.77,10208.98 7205.92,10207.86 7205.09,10286.5 7152.11,10338.36 6995.69,10258.05 6710.16,9992.89 6604.77,10044.18 6708.21,10176.35 6654.96,10254.43 6576.05,10279.79 6601.42,10358.71 6443.87,10383.23 6519.99,10619.97 6650.77,10647.57 6782.93,10544.13 6993.17,10493.94 7097.73,10521.27 7203.13,10469.97 7202.01,10574.8 7254.44,10575.37 7306.02,10654.56 7172.73,10862.84 7199.23,10836.91 7277.3,10890.17 7222.92,11073.08 7301.55,11073.92 7300.43,11178.75 7378.78,11205.8 7379.34,11153.38 7640.89,11208.59 7668.22,11104.03 7720.08,11157.01 7825.47,11105.71 7903.26,11185.18 7955.69,11185.73 7982.74,11107.38 8061.64,11082.02 8062.2,11029.6 8245.39,11057.76 8298.37,11005.9 8272.99,10926.98 8351.9,10901.61 8326.54,10822.7 8432.21,10745.19 8406.28,10718.7 8615.68,10747.14 8667.54,10800.12 8614.29,10878.19 8666.7,10878.75 8691.52,11010.09 8770.71,10958.5 8772.11,10827.45 8516.7,10195.61 8464.56,10168.85 8491.05,10142.92 8386.77,10089.38 8203.02,10113.63 8203.58,10061.21 8124.94,10060.37 8204.42,9982.59 8153.11,9877.19 7968.53,9980.08 8024.3,9666.1 7946.5,9586.65 8051.9,9535.34 8054.42,9299.45 8159.53,9274.36 8133.6,9247.87 8240.68,9039.3 8110.18,8985.49 8085.1,8880.38 8295.05,8856.4 8245.7,8567.53 8350.55,8568.65 8276.66,8122.23 8224.52,8095.47 8223.96,8147.88 7857.02,8143.98 7779.23,8064.5 7700.61,8063.67 7702,7932.62 7415.35,7772.29 7415.92,7719.87 "/>
  </g>
 </g>
</svg>
