<svg xmlns="http://www.w3.org/2000/svg" xmlns:xlink="http://www.w3.org/1999/xlink" xml:space="preserve" width="215.9mm" height="279.4mm" version="1.1" style="shape-rendering:geometricPrecision; text-rendering:geometricPrecision; image-rendering:optimizeQuality; fill-rule:evenodd; clip-rule:evenodd" viewBox="0 0 21590 27940">
 <defs fill="#000000">
  <style type="text/css">
   <![CDATA[
    .str0 {stroke:#FEFEFE;stroke-width:35.28;stroke-linecap:round;stroke-linejoin:round;stroke-miterlimit:22.9256}
    .fil1 {fill:none}
    .fil0 {fill:#76b82a}
   ]]>
  </style>
 </defs>
 <g id="Capa_x0020_1">
  <metadata id="CorelCorpID_0Corel-Layer" fill="#000000"/>
  <g>
   <polygon class="fil0" points="5038.79,15398.81 4443.04,15392.46 4472.18,15452.36 4531.76,15452.99 4379.02,15808.86 4407.22,15958.12 4316.9,16046.53 4287.43,16016.43 4226.59,16134.94 4315.64,16165.69 4316.59,16076.32 4375.85,16106.74 4376.8,16017.38 4495.31,16078.22 4524.14,16167.91 4494.04,16197.37 4405.64,16107.06 4374.9,16196.1 4434.47,16196.73 4433.84,16256.31 4523.51,16227.47 4522.88,16287.05 4283.94,16344.09 4103.31,16520.92 4102.67,16580.49 3982.58,16668.58 4070.98,16758.9 4070.35,16818.47 3950.57,16876.78 3891.63,16816.57 3890.99,16876.15 3680.57,17052.64 3649.51,17171.48 3559.2,17259.9 3617.51,17379.68 3707.82,17291.27 3975.91,17294.13 4304.53,17208.25 4542.51,17240.58 4719.65,17391.43 4869.54,17303.65 5107.21,17365.76 5292.59,16742.12 5591.12,16685.71 5650.38,16716.14 6070.25,16452.49 5893.11,16301.65 5447.88,16147.96 5417.78,16177.43 5388.94,16087.74 5540.42,15851.02 5303.07,15759.13 5185.19,15638.71 5245.09,15609.55 5246.04,15520.19 " fill="#000000"/>
   <polygon id="1" class="fil1 str0" points="5038.79,15398.81 4443.04,15392.46 4472.18,15452.36 4531.76,15452.99 4379.02,15808.86 4407.22,15958.12 4316.9,16046.53 4287.43,16016.43 4226.59,16134.94 4315.64,16165.69 4316.59,16076.32 4375.85,16106.74 4376.8,16017.38 4495.31,16078.22 4524.14,16167.91 4494.04,16197.37 4405.64,16107.06 4374.9,16196.1 4434.47,16196.73 4433.84,16256.31 4523.51,16227.47 4522.88,16287.05 4283.94,16344.09 4103.31,16520.92 4102.67,16580.49 3982.58,16668.58 4070.98,16758.9 4070.35,16818.47 3950.57,16876.78 3891.63,16816.57 3890.99,16876.15 3680.57,17052.64 3649.51,17171.48 3559.2,17259.9 3617.51,17379.68 3707.82,17291.27 3975.91,17294.13 4304.53,17208.25 4542.51,17240.58 4719.65,17391.43 4869.54,17303.65 5107.21,17365.76 5292.59,16742.12 5591.12,16685.71 5650.38,16716.14 6070.25,16452.49 5893.11,16301.65 5447.88,16147.96 5417.78,16177.43 5388.94,16087.74 5540.42,15851.02 5303.07,15759.13 5185.19,15638.71 5245.09,15609.55 5246.04,15520.19 " fill="#000000"/>
  </g>
  <g>
   <polygon class="fil0" points="9018.6,16543.49 8868.08,16690.83 8808.51,16690.2 8717.55,16838.19 8300.21,16863.53 8300.84,16803.96 8181.69,16802.69 8093.29,16712.37 8062.86,16771.63 7853.39,16858.77 7764.34,16828.03 7822.33,16977.61 7703.5,16946.55 7524.14,17004.23 7435.41,16943.7 7308.64,17657.33 7096.64,17982.77 7064.63,18190.97 7182.83,18281.6 7031.03,18548.11 7179.66,18579.48 7297.53,18699.9 7387.22,18671.06 7505.74,18731.91 7506.37,18672.33 7594.78,18762.65 7713.93,18763.92 7831.18,18943.92 7980.12,18945.5 8127.47,19096.02 8217.15,19067.2 8247.89,18978.15 8366.41,19038.99 8305.88,19127.71 8335.03,19187.61 8454.19,19188.88 8514.39,19129.93 8426.3,19009.84 8488.41,18772.17 8460.22,18622.92 8550.52,18534.5 8401.27,18562.71 8402.54,18443.55 8462.76,18384.61 8286.56,18144.41 8226.99,18143.77 8227.62,18084.2 8287.2,18084.83 8230.79,17786.32 8439.31,17788.54 8467.52,17937.79 8526.76,17968.22 8587.61,17849.71 8706.76,17850.98 8738.46,17672.56 8945.38,17823.73 9064.85,17795.21 9242.31,17916.25 9272.74,17857.01 9540.19,17919.43 9451.77,17829.12 9542.09,17740.71 9689.76,17861.45 9869.12,17803.77 9897.32,17953.02 9987.64,17864.62 10047.22,17865.26 10223.4,18105.46 10192.97,18164.72 10251.92,18224.93 10489.59,18287.03 10637.25,18407.77 10726.62,18408.73 10667.68,18348.51 10817.57,18260.75 10701.59,17961.59 10735.19,17604.46 10589.42,17305 10410.7,17303.09 10263.34,17152.56 10205.67,16973.21 10145.46,17032.15 10086.52,16971.94 9965.78,17119.6 9816.21,17177.59 9668.23,17086.64 9698.97,16997.6 9550.98,16906.65 9523.41,16697.81 9493.3,16727.28 9493.94,16667.71 9405.52,16577.4 9286.38,16576.13 9255.96,16635.39 9107.97,16544.44 9077.86,16573.91 " fill="#000000"/>
   <polygon id="1" class="fil1 str0" points="9018.6,16543.49 8868.08,16690.83 8808.51,16690.2 8717.55,16838.19 8300.21,16863.53 8300.84,16803.96 8181.69,16802.69 8093.29,16712.37 8062.86,16771.63 7853.39,16858.77 7764.34,16828.03 7822.33,16977.61 7703.5,16946.55 7524.14,17004.23 7435.41,16943.7 7308.64,17657.33 7096.64,17982.77 7064.63,18190.97 7182.83,18281.6 7031.03,18548.11 7179.66,18579.48 7297.53,18699.9 7387.22,18671.06 7505.74,18731.91 7506.37,18672.33 7594.78,18762.65 7713.93,18763.92 7831.18,18943.92 7980.12,18945.5 8127.47,19096.02 8217.15,19067.2 8247.89,18978.15 8366.41,19038.99 8305.88,19127.71 8335.03,19187.61 8454.19,19188.88 8514.39,19129.93 8426.3,19009.84 8488.41,18772.17 8460.22,18622.92 8550.52,18534.5 8401.27,18562.71 8402.54,18443.55 8462.76,18384.61 8286.56,18144.41 8226.99,18143.77 8227.62,18084.2 8287.2,18084.83 8230.79,17786.32 8439.31,17788.54 8467.52,17937.79 8526.76,17968.22 8587.61,17849.71 8706.76,17850.98 8738.46,17672.56 8945.38,17823.73 9064.85,17795.21 9242.31,17916.25 9272.74,17857.01 9540.19,17919.43 9451.77,17829.12 9542.09,17740.71 9689.76,17861.45 9869.12,17803.77 9897.32,17953.02 9987.64,17864.62 10047.22,17865.26 10223.4,18105.46 10192.97,18164.72 10251.92,18224.93 10489.59,18287.03 10637.25,18407.77 10726.62,18408.73 10667.68,18348.51 10817.57,18260.75 10701.59,17961.59 10735.19,17604.46 10589.42,17305 10410.7,17303.09 10263.34,17152.56 10205.67,16973.21 10145.46,17032.15 10086.52,16971.94 9965.78,17119.6 9816.21,17177.59 9668.23,17086.64 9698.97,16997.6 9550.98,16906.65 9523.41,16697.81 9493.3,16727.28 9493.94,16667.71 9405.52,16577.4 9286.38,16576.13 9255.96,16635.39 9107.97,16544.44 9077.86,16573.91 " fill="#000000"/>
  </g>
  <g>
   <polygon class="fil0" points="7666.78,14801.2 7487.73,14829.08 7606.57,14860.14 7486.46,14948.24 7485.83,15007.8 7366.67,15006.53 7305.51,15154.84 6946.47,15299.98 6945.2,15419.12 7153.4,15451.13 7213.61,15392.2 7332.76,15393.47 7540.33,15485.04 7570.75,15425.78 7630.33,15426.42 7689.27,15486.63 7689.9,15427.05 7809.68,15368.76 7901.9,15101.61 7842.33,15100.98 7785.92,14802.47 " fill="#000000"/>
   <polygon id="1" class="fil1 str0" points="7666.78,14801.2 7487.73,14829.08 7606.57,14860.14 7486.46,14948.24 7485.83,15007.8 7366.67,15006.53 7305.51,15154.84 6946.47,15299.98 6945.2,15419.12 7153.4,15451.13 7213.61,15392.2 7332.76,15393.47 7540.33,15485.04 7570.75,15425.78 7630.33,15426.42 7689.27,15486.63 7689.9,15427.05 7809.68,15368.76 7901.9,15101.61 7842.33,15100.98 7785.92,14802.47 " fill="#000000"/>
  </g>
  <g>
   <polygon class="fil0" points="4357.52,12233.7 4267.21,12322.11 4385.09,12442.53 4474.77,12413.7 4563.18,12504.02 4533.07,12533.48 4621.48,12623.79 4620.85,12683.37 4680.43,12684.01 4766.62,12982.83 4763.13,13310.51 4611.96,13517.43 4610.69,13636.58 4283.35,13603.3 4312.19,13692.99 4247.21,14198.73 3979.76,14136.31 3948.7,14255.14 4006.7,14404.72 4183.83,14555.56 4153.09,14644.6 4063.41,14673.44 4241.18,14764.71 4271.29,14735.23 4300.44,14795.13 4481.39,14588.51 4660.12,14590.42 4662.66,14352.12 4722.23,14352.75 4810.65,14443.07 5019.16,14445.29 5019.79,14385.72 5108.84,14416.46 5199.16,14328.04 5142.12,14089.11 5230.85,14149.64 5350.63,14091.33 5678.62,14065.03 5710.62,13856.83 5770.19,13857.47 5830.72,13768.74 5979.98,13740.54 6275,14011.8 6217.96,13772.86 6128.91,13742.13 6100.08,13652.45 5980.93,13651.18 5863.37,13500.97 5864.32,13411.6 5420.36,13138.76 5359.51,13257.28 5182.38,13106.43 5272.7,13018.01 5273.96,12898.87 5126.29,12778.13 5186.82,12689.4 5128.51,12569.61 4802.75,12387.4 4713.07,12416.24 4595.5,12266.02 4535.93,12265.39 " fill="#000000"/>
   <polygon id="1" class="fil1 str0" points="4357.52,12233.7 4267.21,12322.11 4385.09,12442.53 4474.77,12413.7 4563.18,12504.02 4533.07,12533.48 4621.48,12623.79 4620.85,12683.37 4680.43,12684.01 4766.62,12982.83 4763.13,13310.51 4611.96,13517.43 4610.69,13636.58 4283.35,13603.3 4312.19,13692.99 4247.21,14198.73 3979.76,14136.31 3948.7,14255.14 4006.7,14404.72 4183.83,14555.56 4153.09,14644.6 4063.41,14673.44 4241.18,14764.71 4271.29,14735.23 4300.44,14795.13 4481.39,14588.51 4660.12,14590.42 4662.66,14352.12 4722.23,14352.75 4810.65,14443.07 5019.16,14445.29 5019.79,14385.72 5108.84,14416.46 5199.16,14328.04 5142.12,14089.11 5230.85,14149.64 5350.63,14091.33 5678.62,14065.03 5710.62,13856.83 5770.19,13857.47 5830.72,13768.74 5979.98,13740.54 6275,14011.8 6217.96,13772.86 6128.91,13742.13 6100.08,13652.45 5980.93,13651.18 5863.37,13500.97 5864.32,13411.6 5420.36,13138.76 5359.51,13257.28 5182.38,13106.43 5272.7,13018.01 5273.96,12898.87 5126.29,12778.13 5186.82,12689.4 5128.51,12569.61 4802.75,12387.4 4713.07,12416.24 4595.5,12266.02 4535.93,12265.39 " fill="#000000"/>
  </g>
  <g>
   <polygon class="fil0" points="9048.11,13773.23 8899.18,13771.64 8928.65,13801.74 8808.55,13889.83 8837.38,13979.52 8778.12,13949.09 8776.54,14098.04 8716.33,14156.98 8537.91,14125.29 8507.18,14214.32 8447.61,14213.69 8357.29,14302.1 8297.71,14301.47 8298.34,14241.89 8239.09,14211.47 8119.31,14269.78 8060.37,14209.56 8029.31,14328.4 7791.63,14266.28 7732.06,14265.65 7731.42,14325.23 7642.38,14294.49 7673.44,14175.66 7464.92,14173.44 7434.82,14202.9 7492.49,14382.27 7404.08,14291.95 7402.81,14411.1 7343.23,14410.47 7162.61,14587.3 7311.22,14618.66 7280.81,14677.92 7369.84,14708.66 7339.1,14797.71 7608.15,14711.2 7488.05,14799.29 7815.39,14832.57 7844.23,14922.26 7784.33,14951.41 7901.9,15101.61 7871.16,15190.66 7988.09,15400.45 7927.57,15489.17 7837.88,15518.01 7986.51,15549.38 8014.39,15728.43 8162.37,15819.37 8192.48,15789.91 8133.54,15729.7 8193.75,15670.76 8372.48,15672.66 8371.53,15762.03 8460.57,15792.77 8609.82,15764.56 8582.26,15555.73 8702.05,15497.42 8703,15408.06 8614.9,15287.96 8677.02,15050.28 8529.66,14899.77 8500.84,14810.08 8651.04,14692.52 8889.98,14635.48 8861.46,14516.02 9160.29,14429.82 9102.93,14220.67 9313.35,14044.17 9223.35,14102.8 9195.15,13953.54 9135.58,13952.9 9166.32,13863.85 9077.9,13773.55 9047.8,13803.01 " fill="#000000"/>
   <polygon id="1" class="fil1 str0" points="9048.11,13773.23 8899.18,13771.64 8928.65,13801.74 8808.55,13889.83 8837.38,13979.52 8778.12,13949.09 8776.54,14098.04 8716.33,14156.98 8537.91,14125.29 8507.18,14214.32 8447.61,14213.69 8357.29,14302.1 8297.71,14301.47 8298.34,14241.89 8239.09,14211.47 8119.31,14269.78 8060.37,14209.56 8029.31,14328.4 7791.63,14266.28 7732.06,14265.65 7731.42,14325.23 7642.38,14294.49 7673.44,14175.66 7464.92,14173.44 7434.82,14202.9 7492.49,14382.27 7404.08,14291.95 7402.81,14411.1 7343.23,14410.47 7162.61,14587.3 7311.22,14618.66 7280.81,14677.92 7369.84,14708.66 7339.1,14797.71 7608.15,14711.2 7488.05,14799.29 7815.39,14832.57 7844.23,14922.26 7784.33,14951.41 7901.9,15101.61 7871.16,15190.66 7988.09,15400.45 7927.57,15489.17 7837.88,15518.01 7986.51,15549.38 8014.39,15728.43 8162.37,15819.37 8192.48,15789.91 8133.54,15729.7 8193.75,15670.76 8372.48,15672.66 8371.53,15762.03 8460.57,15792.77 8609.82,15764.56 8582.26,15555.73 8702.05,15497.42 8703,15408.06 8614.9,15287.96 8677.02,15050.28 8529.66,14899.77 8500.84,14810.08 8651.04,14692.52 8889.98,14635.48 8861.46,14516.02 9160.29,14429.82 9102.93,14220.67 9313.35,14044.17 9223.35,14102.8 9195.15,13953.54 9135.58,13952.9 9166.32,13863.85 9077.9,13773.55 9047.8,13803.01 " fill="#000000"/>
  </g>
  <g>
   <polygon class="fil0" points="6857.47,12468.87 6738.64,12437.82 6618.85,12496.12 6440.13,12494.22 6439.49,12553.78 6349.18,12642.2 6112.14,12520.52 6108.96,12818.39 5540.15,13080.45 5598.45,13200.24 5538.88,13199.6 5893.79,13441.71 5951.15,13650.86 6040.83,13622.03 6128.91,13742.13 6217.96,13772.86 6275,14011.8 6244.26,14100.85 6363.73,14072.33 6359.29,14489.36 6508.22,14490.95 6388.44,14549.26 6387.81,14608.82 6297.81,14667.45 6385.59,14817.34 6144.11,15112.68 6143.47,15172.25 5902.95,15378.24 5604.44,15434.63 5633.28,15524.31 5543.28,15582.94 5570.85,15791.76 5388.94,16087.74 5417.78,16177.43 5447.88,16147.96 5893.11,16301.65 6070.25,16452.49 6248.98,16454.4 6518.33,16338.1 7054.52,16343.81 7231.03,16554.24 7291.23,16495.29 7174.62,16255.72 7204.73,16226.24 7442.39,16288.36 7385.35,16049.43 7504.19,16080.49 7505.46,15961.33 7683.87,15993.02 7626.2,15813.66 7685.46,15844.08 7567.89,15693.88 7540.33,15485.04 7332.76,15393.47 7213.61,15392.2 7123.61,15450.81 6974.99,15419.44 6974.35,15479.01 6884.68,15507.85 6557.96,15414.99 6470.19,15265.11 6531.66,15087.01 6681.56,14999.23 6803.25,14762.21 6773.78,14732.1 6955.35,14465.92 7014.61,14496.34 7105.25,14378.14 6957.58,14257.4 6928.74,14167.73 7137.58,14140.16 7138.21,14080.58 7167.68,14110.69 7348.94,13874.28 7349.89,13784.92 7619.58,13638.84 7530.53,13608.1 7531.8,13488.95 7412.01,13547.26 7143.92,13544.4 6904.04,13690.8 6755.41,13659.43 6668.9,13390.38 6847.95,13362.51 6849.22,13243.35 6614.4,12913.15 6703.45,12943.89 6794.09,12825.69 6945.56,12588.97 6856.2,12588.02 6917.05,12469.51 " fill="#000000"/>
   <polygon id="1" class="fil1 str0" points="6857.47,12468.87 6738.64,12437.82 6618.85,12496.12 6440.13,12494.22 6439.49,12553.78 6349.18,12642.2 6112.14,12520.52 6108.96,12818.39 5540.15,13080.45 5598.45,13200.24 5538.88,13199.6 5893.79,13441.71 5951.15,13650.86 6040.83,13622.03 6128.91,13742.13 6217.96,13772.86 6275,14011.8 6244.26,14100.85 6363.73,14072.33 6359.29,14489.36 6508.22,14490.95 6388.44,14549.26 6387.81,14608.82 6297.81,14667.45 6385.59,14817.34 6144.11,15112.68 6143.47,15172.25 5902.95,15378.24 5604.44,15434.63 5633.28,15524.31 5543.28,15582.94 5570.85,15791.76 5388.94,16087.74 5417.78,16177.43 5447.88,16147.96 5893.11,16301.65 6070.25,16452.49 6248.98,16454.4 6518.33,16338.1 7054.52,16343.81 7231.03,16554.24 7291.23,16495.29 7174.62,16255.72 7204.73,16226.24 7442.39,16288.36 7385.35,16049.43 7504.19,16080.49 7505.46,15961.33 7683.87,15993.02 7626.2,15813.66 7685.46,15844.08 7567.89,15693.88 7540.33,15485.04 7332.76,15393.47 7213.61,15392.2 7123.61,15450.81 6974.99,15419.44 6974.35,15479.01 6884.68,15507.85 6557.96,15414.99 6470.19,15265.11 6531.66,15087.01 6681.56,14999.23 6803.25,14762.21 6773.78,14732.1 6955.35,14465.92 7014.61,14496.34 7105.25,14378.14 6957.58,14257.4 6928.74,14167.73 7137.58,14140.16 7138.21,14080.58 7167.68,14110.69 7348.94,13874.28 7349.89,13784.92 7619.58,13638.84 7530.53,13608.1 7531.8,13488.95 7412.01,13547.26 7143.92,13544.4 6904.04,13690.8 6755.41,13659.43 6668.9,13390.38 6847.95,13362.51 6849.22,13243.35 6614.4,12913.15 6703.45,12943.89 6794.09,12825.69 6945.56,12588.97 6856.2,12588.02 6917.05,12469.51 " fill="#000000"/>
  </g>
  <g>
   <polygon class="fil0" points="7648.73,13698.74 7619.26,13668.63 7349.89,13784.92 7348.94,13874.28 7167.68,14110.69 7138.21,14080.58 7137.58,14140.16 6928.74,14167.73 6957.58,14257.4 7105.25,14378.14 7014.61,14496.34 6955.35,14465.92 6773.78,14732.1 6803.25,14762.21 6621.66,15028.39 6651.13,15058.49 6531.98,15057.23 6469.88,15294.9 6529.44,15295.53 6528.17,15414.68 6944.25,15508.49 6976.26,15300.29 7305.51,15154.84 7366.35,15036.32 7485.83,15007.8 7486.46,14948.24 7606.25,14889.93 7487.73,14829.08 7607.84,14740.99 7339.1,14797.71 7369.84,14708.66 7310.59,14678.24 7311.22,14618.66 7162.61,14587.3 7343.23,14410.47 7402.81,14411.1 7404.08,14291.95 7492.49,14382.27 7434.5,14232.69 7464.92,14173.44 7643.65,14175.34 7554.29,14174.39 7615.77,13996.3 7557.14,13906.29 7527.04,13935.77 " fill="#000000"/>
   <polygon id="1" class="fil1 str0" points="7648.73,13698.74 7619.26,13668.63 7349.89,13784.92 7348.94,13874.28 7167.68,14110.69 7138.21,14080.58 7137.58,14140.16 6928.74,14167.73 6957.58,14257.4 7105.25,14378.14 7014.61,14496.34 6955.35,14465.92 6773.78,14732.1 6803.25,14762.21 6621.66,15028.39 6651.13,15058.49 6531.98,15057.23 6469.88,15294.9 6529.44,15295.53 6528.17,15414.68 6944.25,15508.49 6976.26,15300.29 7305.51,15154.84 7366.35,15036.32 7485.83,15007.8 7486.46,14948.24 7606.25,14889.93 7487.73,14829.08 7607.84,14740.99 7339.1,14797.71 7369.84,14708.66 7310.59,14678.24 7311.22,14618.66 7162.61,14587.3 7343.23,14410.47 7402.81,14411.1 7404.08,14291.95 7492.49,14382.27 7434.5,14232.69 7464.92,14173.44 7643.65,14175.34 7554.29,14174.39 7615.77,13996.3 7557.14,13906.29 7527.04,13935.77 " fill="#000000"/>
  </g>
  <g>
   <polygon class="fil0" points="5860.51,13769.05 5800.62,13798.21 5799.98,13857.78 5710.93,13827.04 5709.03,14005.77 5648.83,14064.72 5350.63,14091.33 5230.85,14149.64 5171.91,14089.43 5141.8,14118.9 5229.58,14268.78 5138.63,14416.77 5049.58,14386.03 5048.94,14445.61 4810.65,14443.07 4722.23,14352.75 4662.66,14352.12 4660.12,14590.42 4451.29,14617.98 4300.44,14795.13 4535.89,15065.75 4415.16,15213.43 4443.04,15392.46 5038.79,15398.81 5246.04,15520.19 5185.19,15638.71 5362.01,15819.33 5392.12,15789.86 5540.42,15851.02 5543.28,15582.94 5633.28,15524.31 5604.13,15464.42 5664.34,15405.47 5962.85,15349.08 5963.48,15289.5 6234.11,15054.05 6234.74,14994.47 6355.16,14876.6 6356.43,14757.45 6297.49,14697.24 6387.81,14608.82 6388.44,14549.26 6507.9,14520.74 6359.29,14489.36 6363.73,14072.33 6244.26,14100.85 6275,14011.8 5979.98,13740.54 " fill="#000000"/>
   <polygon id="1" class="fil1 str0" points="5860.51,13769.05 5800.62,13798.21 5799.98,13857.78 5710.93,13827.04 5709.03,14005.77 5648.83,14064.72 5350.63,14091.33 5230.85,14149.64 5171.91,14089.43 5141.8,14118.9 5229.58,14268.78 5138.63,14416.77 5049.58,14386.03 5048.94,14445.61 4810.65,14443.07 4722.23,14352.75 4662.66,14352.12 4660.12,14590.42 4451.29,14617.98 4300.44,14795.13 4535.89,15065.75 4415.16,15213.43 4443.04,15392.46 5038.79,15398.81 5246.04,15520.19 5185.19,15638.71 5362.01,15819.33 5392.12,15789.86 5540.42,15851.02 5543.28,15582.94 5633.28,15524.31 5604.13,15464.42 5664.34,15405.47 5962.85,15349.08 5963.48,15289.5 6234.11,15054.05 6234.74,14994.47 6355.16,14876.6 6356.43,14757.45 6297.49,14697.24 6387.81,14608.82 6388.44,14549.26 6507.9,14520.74 6359.29,14489.36 6363.73,14072.33 6244.26,14100.85 6275,14011.8 5979.98,13740.54 " fill="#000000"/>
  </g>
  <g>
   <polygon class="fil0" points="7054.52,16343.81 6548.12,16338.42 6248.98,16454.4 6070.25,16452.49 5650.38,16716.14 5591.12,16685.71 5292.59,16742.12 5137,17366.08 5076.47,17454.8 5460.85,17727.02 5908.31,17672.2 6265.44,17705.8 6264.81,17765.38 6354.49,17736.54 6472.36,17856.95 6591.52,17858.22 6620.35,17947.91 6738.87,18008.75 6708.77,18038.22 6767.07,18158.01 6974.95,18219.81 7005.69,18130.76 7064.63,18190.97 7157.8,17834.47 7308.64,17657.33 7342.24,17300.2 7435.09,16973.49 7346.68,16883.17 7378.05,16734.54 7229.44,16703.17 7289.64,16644.22 " fill="#000000"/>
   <polygon id="1" class="fil1 str0" points="7054.52,16343.81 6548.12,16338.42 6248.98,16454.4 6070.25,16452.49 5650.38,16716.14 5591.12,16685.71 5292.59,16742.12 5137,17366.08 5076.47,17454.8 5460.85,17727.02 5908.31,17672.2 6265.44,17705.8 6264.81,17765.38 6354.49,17736.54 6472.36,17856.95 6591.52,17858.22 6620.35,17947.91 6738.87,18008.75 6708.77,18038.22 6767.07,18158.01 6974.95,18219.81 7005.69,18130.76 7064.63,18190.97 7157.8,17834.47 7308.64,17657.33 7342.24,17300.2 7435.09,16973.49 7346.68,16883.17 7378.05,16734.54 7229.44,16703.17 7289.64,16644.22 " fill="#000000"/>
  </g>
  <g>
   <polygon class="fil0" points="7958.94,15340.55 7871.16,15190.66 7810,15338.97 7720.31,15367.8 7689.27,15486.63 7660.11,15426.74 7540.33,15485.04 7597.05,15753.77 7685.46,15844.08 7626.2,15813.66 7683.87,15993.02 7505.46,15961.33 7504.19,16080.49 7385.35,16049.43 7442.39,16288.36 7233.88,16286.14 7234.52,16226.56 7174.62,16255.72 7291.23,16495.29 7231.03,16554.24 7289.96,16614.45 7259.23,16703.48 7378.05,16734.54 7346.68,16883.17 7524.14,17004.23 7673.72,16946.24 7822.33,16977.61 7823.29,16888.24 7734.55,16827.72 7853.39,16858.77 8092.97,16742.16 8330.31,16834.06 8300.21,16863.53 8717.55,16838.19 8778.4,16719.67 9018.6,16543.49 8930.82,16393.59 8900.09,16482.64 8811.05,16451.9 8723.27,16302 8724.85,16153.07 8845.91,15975.61 8638.66,15854.24 8609.82,15764.56 8371.53,15762.03 8342.69,15672.34 8133.85,15699.91 8192.48,15789.91 8162.37,15819.37 8043.86,15758.53 7986.51,15549.38 7837.88,15518.01 7927.57,15489.17 7988.09,15400.45 7958.62,15370.34 " fill="#000000"/>
   <polygon id="1" class="fil1 str0" points="7958.94,15340.55 7871.16,15190.66 7810,15338.97 7720.31,15367.8 7689.27,15486.63 7660.11,15426.74 7540.33,15485.04 7597.05,15753.77 7685.46,15844.08 7626.2,15813.66 7683.87,15993.02 7505.46,15961.33 7504.19,16080.49 7385.35,16049.43 7442.39,16288.36 7233.88,16286.14 7234.52,16226.56 7174.62,16255.72 7291.23,16495.29 7231.03,16554.24 7289.96,16614.45 7259.23,16703.48 7378.05,16734.54 7346.68,16883.17 7524.14,17004.23 7673.72,16946.24 7822.33,16977.61 7823.29,16888.24 7734.55,16827.72 7853.39,16858.77 8092.97,16742.16 8330.31,16834.06 8300.21,16863.53 8717.55,16838.19 8778.4,16719.67 9018.6,16543.49 8930.82,16393.59 8900.09,16482.64 8811.05,16451.9 8723.27,16302 8724.85,16153.07 8845.91,15975.61 8638.66,15854.24 8609.82,15764.56 8371.53,15762.03 8342.69,15672.34 8133.85,15699.91 8192.48,15789.91 8162.37,15819.37 8043.86,15758.53 7986.51,15549.38 7837.88,15518.01 7927.57,15489.17 7988.09,15400.45 7958.62,15370.34 " fill="#000000"/>
  </g>
  <g>
   <polygon class="fil0" points="8767.93,17702.67 8708.35,17702.03 8706.76,17850.98 8587.61,17849.71 8526.76,17968.22 8437.73,17937.47 8439.31,17788.54 8230.79,17786.32 8287.83,18025.25 8226.99,18143.77 8286.56,18144.41 8462.76,18384.61 8402.54,18443.55 8401.27,18562.71 8550.52,18534.5 8460.22,18622.92 8488.41,18772.17 8427.57,18890.69 8426.3,19009.84 8514.71,19100.15 8694.07,19042.48 8723.54,19072.59 8783.75,19013.65 9201.1,18988.3 9173.22,18809.25 9114.59,18719.25 9055.01,18718.62 9205.86,18541.49 9207.76,18362.75 9328.81,18185.3 9417.54,18245.83 9536.7,18247.1 9776.26,18130.49 9894.78,18191.33 10133.08,18193.87 10223.08,18135.25 10106.16,17925.46 10017.43,17864.94 9897.32,17953.02 9898.91,17804.09 9779.75,17802.82 9719.54,17861.77 9631.14,17771.45 9512.3,17740.39 9451.77,17829.12 9540.19,17919.43 9391.88,17858.27 9272.74,17857.01 9212.52,17915.94 9183.69,17826.26 9094,17855.1 9005.59,17764.78 8975.17,17824.04 8915.59,17823.41 " fill="#000000"/>
   <polygon id="1" class="fil1 str0" points="8767.93,17702.67 8708.35,17702.03 8706.76,17850.98 8587.61,17849.71 8526.76,17968.22 8437.73,17937.47 8439.31,17788.54 8230.79,17786.32 8287.83,18025.25 8226.99,18143.77 8286.56,18144.41 8462.76,18384.61 8402.54,18443.55 8401.27,18562.71 8550.52,18534.5 8460.22,18622.92 8488.41,18772.17 8427.57,18890.69 8426.3,19009.84 8514.71,19100.15 8694.07,19042.48 8723.54,19072.59 8783.75,19013.65 9201.1,18988.3 9173.22,18809.25 9114.59,18719.25 9055.01,18718.62 9205.86,18541.49 9207.76,18362.75 9328.81,18185.3 9417.54,18245.83 9536.7,18247.1 9776.26,18130.49 9894.78,18191.33 10133.08,18193.87 10223.08,18135.25 10106.16,17925.46 10017.43,17864.94 9897.32,17953.02 9898.91,17804.09 9779.75,17802.82 9719.54,17861.77 9631.14,17771.45 9512.3,17740.39 9451.77,17829.12 9540.19,17919.43 9391.88,17858.27 9272.74,17857.01 9212.52,17915.94 9183.69,17826.26 9094,17855.1 9005.59,17764.78 8975.17,17824.04 8915.59,17823.41 " fill="#000000"/>
  </g>
 </g>
</svg>