<svg xmlns="http://www.w3.org/2000/svg" xmlns:xlink="http://www.w3.org/1999/xlink" xml:space="preserve" width="215.9mm" height="279.4mm" version="1.1" style="shape-rendering:geometricPrecision; text-rendering:geometricPrecision; image-rendering:optimizeQuality; fill-rule:evenodd; clip-rule:evenodd" viewBox="0 0 21590 27940">
 <defs fill="#000000">
  <style type="text/css">
   <![CDATA[
    .str0 {stroke:#FEFEFE;stroke-width:17.63;stroke-linecap:round;stroke-linejoin:round;stroke-miterlimit:22.9256}
    .fil1 {fill:none}
    .fil0 {fill:#055a1c}
   ]]>
  </style>
 </defs>
 <g id="Capa_x0020_1">
  <metadata id="CorelCorpID_0Corel-Layer" fill="#000000"/>
  <g>
   <polygon class="fil0" points="12061.56,14904.95 11851.78,15021.89 11910.71,15082.1 11849.88,15200.62 11671.78,15139.14 11522.52,15167.34 11521.89,15226.91 11462.31,15226.28 11461.04,15345.42 11758.61,15378.38 11819.14,15289.65 11937.65,15350.5 11966.17,15469.97 12234.58,15443.04 12354.36,15384.73 12445.63,15206.96 12446.9,15087.81 12387.32,15087.17 12448.17,14968.65 12299.54,14937.28 12119.87,15024.74 " fill="#000000"/>
   <polygon id="1" class="fil1 str0" points="12061.56,14904.95 11851.78,15021.89 11910.71,15082.1 11849.88,15200.62 11671.78,15139.14 11522.52,15167.34 11521.89,15226.91 11462.31,15226.28 11461.04,15345.42 11758.61,15378.38 11819.14,15289.65 11937.65,15350.5 11966.17,15469.97 12234.58,15443.04 12354.36,15384.73 12445.63,15206.96 12446.9,15087.81 12387.32,15087.17 12448.17,14968.65 12299.54,14937.28 12119.87,15024.74 " fill="#000000"/>
  </g>
  <g>
   <polygon class="fil0" points="8542.61,6853.66 8303.98,6880.91 8303.03,6970.27 8564.15,7628.46 8414.57,7686.45 8473.51,7746.66 8443.41,7776.13 8354.04,7775.18 8382.88,7864.86 8472.56,7836.02 8501.4,7925.7 8561.61,7866.76 8560.02,8015.7 8676,8314.85 8764.09,8434.95 8794.19,8405.47 9027.74,8854.83 9177.31,8796.84 9351.6,9215.77 9202.34,9243.97 9229.27,9512.39 9492.6,9962.05 9488.15,10379.08 9666.57,10410.77 9611.43,9993.11 9467.9,9485.14 9380.12,9335.24 9497.99,9455.67 9498.62,9396.09 9618.41,9337.78 9704.92,9606.82 10003.75,9520.64 10003.11,9580.2 10092.8,9551.38 10093.43,9491.8 10033.86,9491.17 10095.97,9253.49 10067.45,9134.03 9805.71,8535.42 9691.64,8057.54 9516.71,7698.19 9457.15,7697.55 9458.73,7548.61 9220.11,7575.86 9132.96,7366.4 9163.07,7336.93 8953.93,7394.28 8835.09,7363.23 8661.13,6914.51 8571.76,6913.55 " fill="#000000"/>
   <polygon id="1" class="fil1 str0" points="8542.61,6853.66 8303.98,6880.91 8303.03,6970.27 8564.15,7628.46 8414.57,7686.45 8473.51,7746.66 8443.41,7776.13 8354.04,7775.18 8382.88,7864.86 8472.56,7836.02 8501.4,7925.7 8561.61,7866.76 8560.02,8015.7 8676,8314.85 8764.09,8434.95 8794.19,8405.47 9027.74,8854.83 9177.31,8796.84 9351.6,9215.77 9202.34,9243.97 9229.27,9512.39 9492.6,9962.05 9488.15,10379.08 9666.57,10410.77 9611.43,9993.11 9467.9,9485.14 9380.12,9335.24 9497.99,9455.67 9498.62,9396.09 9618.41,9337.78 9704.92,9606.82 10003.75,9520.64 10003.11,9580.2 10092.8,9551.38 10093.43,9491.8 10033.86,9491.17 10095.97,9253.49 10067.45,9134.03 9805.71,8535.42 9691.64,8057.54 9516.71,7698.19 9457.15,7697.55 9458.73,7548.61 9220.11,7575.86 9132.96,7366.4 9163.07,7336.93 8953.93,7394.28 8835.09,7363.23 8661.13,6914.51 8571.76,6913.55 " fill="#000000"/>
  </g>
  <g>
   <polygon class="fil0" points="9016.32,9927.2 8986.85,9897.09 8597.39,10101.47 8388.87,10099.25 8533.37,10517.87 8527.02,11113.63 8675.95,11115.21 8853.1,11266.05 8939.29,11564.89 8909.18,11594.35 8909.82,11534.78 8820.77,11504.04 8820.13,11563.62 8730.45,11592.44 8966.54,11803.5 8995.37,11893.18 8994.74,11952.76 8845.8,11951.17 8932.62,12190.42 8842.94,12219.26 8842.31,12278.84 8783.05,12248.41 8783.68,12188.84 8634.75,12187.25 8603.37,12335.88 8365.07,12333.34 8449.04,12840.67 8893.63,13053.95 9012.79,13055.22 9193.09,12908.18 9252.67,12908.82 9253.31,12849.24 9312.88,12849.87 9341.72,12939.56 9728.01,13033.05 9844.94,13242.83 9784.73,13301.77 9813.56,13391.45 9902.28,13451.98 9962.5,13393.04 9993.87,13244.41 10113.03,13245.68 10173.24,13186.75 10084.82,13096.43 10086.09,12977.28 10177.36,12799.51 10296.51,12800.78 10239.8,12532.05 10181.49,12412.26 9943.18,12409.72 9973.92,12320.68 9915.29,12230.68 9885.19,12260.16 9826.89,12140.37 9829.11,11931.86 9889.31,11872.92 9829.75,11872.28 9800.91,11782.6 9802.18,11663.44 9862.39,11604.5 9891.85,11634.61 9892.49,11575.04 9743.56,11573.45 9655.14,11483.14 9655.78,11423.56 9596.2,11422.93 9837.68,11127.59 9750.54,10918.12 9695.72,10470.67 9666.57,10410.77 9488.15,10379.08 9492.6,9962.05 9164.3,10018.14 9045.79,9957.29 " fill="#000000"/>
   <polygon id="1" class="fil1 str0" points="9016.32,9927.2 8986.85,9897.09 8597.39,10101.47 8388.87,10099.25 8533.37,10517.87 8527.02,11113.63 8675.95,11115.21 8853.1,11266.05 8939.29,11564.89 8909.18,11594.35 8909.82,11534.78 8820.77,11504.04 8820.13,11563.62 8730.45,11592.44 8966.54,11803.5 8995.37,11893.18 8994.74,11952.76 8845.8,11951.17 8932.62,12190.42 8842.94,12219.26 8842.31,12278.84 8783.05,12248.41 8783.68,12188.84 8634.75,12187.25 8603.37,12335.88 8365.07,12333.34 8449.04,12840.67 8893.63,13053.95 9012.79,13055.22 9193.09,12908.18 9252.67,12908.82 9253.31,12849.24 9312.88,12849.87 9341.72,12939.56 9728.01,13033.05 9844.94,13242.83 9784.73,13301.77 9813.56,13391.45 9902.28,13451.98 9962.5,13393.04 9993.87,13244.41 10113.03,13245.68 10173.24,13186.75 10084.82,13096.43 10086.09,12977.28 10177.36,12799.51 10296.51,12800.78 10239.8,12532.05 10181.49,12412.26 9943.18,12409.72 9973.92,12320.68 9915.29,12230.68 9885.19,12260.16 9826.89,12140.37 9829.11,11931.86 9889.31,11872.92 9829.75,11872.28 9800.91,11782.6 9802.18,11663.44 9862.39,11604.5 9891.85,11634.61 9892.49,11575.04 9743.56,11573.45 9655.14,11483.14 9655.78,11423.56 9596.2,11422.93 9837.68,11127.59 9750.54,10918.12 9695.72,10470.67 9666.57,10410.77 9488.15,10379.08 9492.6,9962.05 9164.3,10018.14 9045.79,9957.29 " fill="#000000"/>
  </g>
  <g>
   <polygon class="fil0" points="12307.47,14192.59 12246,14370.68 12274.83,14460.36 12215.26,14459.72 12064.73,14607.08 12153.78,14637.82 12152.51,14756.97 12211.46,14817.18 12241.56,14787.71 12447.85,14998.44 12387.64,15057.39 12446.58,15117.6 12415.2,15266.21 12623.09,15328.01 12534.99,15207.92 12595.2,15148.97 12565.73,15118.87 12654.78,15149.61 12805.3,15002.25 12805.93,14942.67 12896.25,14854.27 12867.73,14734.8 12988.16,14616.92 12989.43,14497.76 12899.74,14526.6 12870.91,14436.93 12721.65,14465.12 12722.28,14405.55 12633.88,14315.23 12543.88,14373.86 12484.94,14313.65 12515.68,14224.6 12396.52,14223.33 12426.63,14193.86 12337.58,14163.12 " fill="#000000"/>
   <polygon id="1" class="fil1 str0" points="12307.47,14192.59 12246,14370.68 12274.83,14460.36 12215.26,14459.72 12064.73,14607.08 12153.78,14637.82 12152.51,14756.97 12211.46,14817.18 12241.56,14787.71 12447.85,14998.44 12387.64,15057.39 12446.58,15117.6 12415.2,15266.21 12623.09,15328.01 12534.99,15207.92 12595.2,15148.97 12565.73,15118.87 12654.78,15149.61 12805.3,15002.25 12805.93,14942.67 12896.25,14854.27 12867.73,14734.8 12988.16,14616.92 12989.43,14497.76 12899.74,14526.6 12870.91,14436.93 12721.65,14465.12 12722.28,14405.55 12633.88,14315.23 12543.88,14373.86 12484.94,14313.65 12515.68,14224.6 12396.52,14223.33 12426.63,14193.86 12337.58,14163.12 " fill="#000000"/>
  </g>
  <g>
   <polygon class="fil0" points="12959.72,8896.72 12899.51,8955.66 12870.04,8925.55 12750.25,8983.86 12510.05,9160.06 12211.54,9216.45 12003.97,9124.87 11794.51,9212 11676.62,9091.59 11646.52,9121.06 11760.91,9569.15 11755.2,10105.32 11864.52,11030.01 11803.99,11118.74 11831.24,11357.36 11800.18,11476.2 11740.29,11505.35 11767.54,11743.96 11705.42,11981.64 11913.93,11983.86 12031.81,12104.27 12209.59,12195.54 12239.7,12166.07 12357.89,12256.71 12357.25,12316.28 12297.99,12285.86 12327.15,12345.75 12236.52,12463.94 12354.4,12584.37 12444.08,12555.53 12502.07,12705.11 12620.91,12736.17 12769.84,12737.75 12741.96,12558.71 12801.85,12529.55 12803.75,12350.83 12894.07,12262.42 12805.66,12172.1 12837.03,12023.47 12866.19,12083.37 13166.92,11818.46 13196.07,11878.35 13375.75,11790.89 13287.34,11700.57 13467.66,11553.54 13468.29,11493.97 13587.44,11495.24 13590.29,11227.14 13739.55,11198.95 13711.67,11019.9 13890.08,11051.59 13950.92,10933.07 13951.55,10873.5 13891.99,10872.86 13922.73,10783.82 13863.47,10753.4 13896.75,10426.04 13837.8,10365.84 13839.07,10246.69 13422.36,10212.46 13066.5,10059.71 13037.66,9970.04 12978.08,9969.4 13068.08,9910.78 12948.93,9909.51 12984.43,9373.64 13192.94,9375.86 13193.89,9286.5 13015.17,9284.59 13015.81,9225.02 12956.23,9224.38 12989.19,8926.82 " fill="#000000"/>
   <polygon id="1" class="fil1 str0" points="12959.72,8896.72 12899.51,8955.66 12870.04,8925.55 12750.25,8983.86 12510.05,9160.06 12211.54,9216.45 12003.97,9124.87 11794.51,9212 11676.62,9091.59 11646.52,9121.06 11760.91,9569.15 11755.2,10105.32 11864.52,11030.01 11803.99,11118.74 11831.24,11357.36 11800.18,11476.2 11740.29,11505.35 11767.54,11743.96 11705.42,11981.64 11913.93,11983.86 12031.81,12104.27 12209.59,12195.54 12239.7,12166.07 12357.89,12256.71 12357.25,12316.28 12297.99,12285.86 12327.15,12345.75 12236.52,12463.94 12354.4,12584.37 12444.08,12555.53 12502.07,12705.11 12620.91,12736.17 12769.84,12737.75 12741.96,12558.71 12801.85,12529.55 12803.75,12350.83 12894.07,12262.42 12805.66,12172.1 12837.03,12023.47 12866.19,12083.37 13166.92,11818.46 13196.07,11878.35 13375.75,11790.89 13287.34,11700.57 13467.66,11553.54 13468.29,11493.97 13587.44,11495.24 13590.29,11227.14 13739.55,11198.95 13711.67,11019.9 13890.08,11051.59 13950.92,10933.07 13951.55,10873.5 13891.99,10872.86 13922.73,10783.82 13863.47,10753.4 13896.75,10426.04 13837.8,10365.84 13839.07,10246.69 13422.36,10212.46 13066.5,10059.71 13037.66,9970.04 12978.08,9969.4 13068.08,9910.78 12948.93,9909.51 12984.43,9373.64 13192.94,9375.86 13193.89,9286.5 13015.17,9284.59 13015.81,9225.02 12956.23,9224.38 12989.19,8926.82 " fill="#000000"/>
  </g>
  <g>
   <polygon class="fil0" points="11115.97,14179.89 11055.44,14268.63 10935.98,14297.15 10459.69,14262.28 10661.53,14890.04 10660.26,15009.19 10451.75,15006.97 10420.06,15185.38 10598.16,15246.85 10479,15245.59 10478.37,15305.16 10567.42,15335.9 10596.25,15425.59 10685.93,15396.75 10804.13,15487.38 10923.28,15488.65 11162.85,15372.04 11401.16,15374.58 11401.79,15315 11461.36,15315.63 11461.99,15256.06 11521.57,15256.69 11461.99,15256.06 11552.31,15167.65 11879.97,15171.15 11731.68,15109.98 11525.7,14869.45 11468.66,14630.52 11528.87,14571.58 11500.03,14481.89 11410.36,14510.73 11441.1,14421.69 11380.89,14480.63 11232.26,14449.25 11233.53,14330.11 11145.44,14210 " fill="#000000"/>
   <polygon id="1" class="fil1 str0" points="11115.97,14179.89 11055.44,14268.63 10935.98,14297.15 10459.69,14262.28 10661.53,14890.04 10660.26,15009.19 10451.75,15006.97 10420.06,15185.38 10598.16,15246.85 10479,15245.59 10478.37,15305.16 10567.42,15335.9 10596.25,15425.59 10685.93,15396.75 10804.13,15487.38 10923.28,15488.65 11162.85,15372.04 11401.16,15374.58 11401.79,15315 11461.36,15315.63 11461.99,15256.06 11521.57,15256.69 11461.99,15256.06 11552.31,15167.65 11879.97,15171.15 11731.68,15109.98 11525.7,14869.45 11468.66,14630.52 11528.87,14571.58 11500.03,14481.89 11410.36,14510.73 11441.1,14421.69 11380.89,14480.63 11232.26,14449.25 11233.53,14330.11 11145.44,14210 " fill="#000000"/>
  </g>
  <g>
   <polygon class="fil0" points="10134.92,11190.33 10074.39,11279.06 10044.92,11248.95 10014.18,11338 9955.24,11277.79 9982.81,11486.63 9862.71,11574.72 9892.17,11604.82 9801.86,11693.23 9829.75,11872.28 9889.31,11872.92 9829.11,11931.86 9826.89,12140.37 9885.19,12260.16 9915.29,12230.68 9974.24,12290.9 9943.18,12409.72 10092.44,12381.53 10151.38,12441.73 10181.49,12412.26 10240.11,12502.26 10296.51,12800.78 10177.36,12799.51 10086.09,12977.28 10084.82,13096.43 10173.24,13186.75 10143.13,13216.21 10231.23,13336.32 10229.96,13455.47 10466.35,13636.73 10403.92,13904.19 10402.01,14082.91 10460.01,14232.49 10906.19,14296.83 11115.97,14179.89 10999.36,13940.33 11149.56,13822.76 11120.09,13792.65 11211.36,13614.89 11213.26,13436.16 11095.38,13315.73 11067.81,13106.91 11339.08,12811.89 11309.61,12781.78 11399.29,12752.95 11399.93,12693.37 11281.73,12602.73 11192.36,12601.78 11193.63,12482.63 11134.69,12422.41 11074.79,12451.57 11016.18,12361.58 10865.97,12479.14 10807.34,12389.15 10657.46,12476.91 10538.94,12416.07 10570.95,12207.88 10392.85,12146.4 10423.91,12027.56 10308.56,11668.84 10311.1,11430.54 10372.27,11282.23 10253.76,11221.39 10253.12,11280.96 10193.23,11310.12 10164.71,11190.65 " fill="#000000"/>
   <polygon id="1" class="fil1 str0" points="10134.92,11190.33 10074.39,11279.06 10044.92,11248.95 10014.18,11338 9955.24,11277.79 9982.81,11486.63 9862.71,11574.72 9892.17,11604.82 9801.86,11693.23 9829.75,11872.28 9889.31,11872.92 9829.11,11931.86 9826.89,12140.37 9885.19,12260.16 9915.29,12230.68 9974.24,12290.9 9943.18,12409.72 10092.44,12381.53 10151.38,12441.73 10181.49,12412.26 10240.11,12502.26 10296.51,12800.78 10177.36,12799.51 10086.09,12977.28 10084.82,13096.43 10173.24,13186.75 10143.13,13216.21 10231.23,13336.32 10229.96,13455.47 10466.35,13636.73 10403.92,13904.19 10402.01,14082.91 10460.01,14232.49 10906.19,14296.83 11115.97,14179.89 10999.36,13940.33 11149.56,13822.76 11120.09,13792.65 11211.36,13614.89 11213.26,13436.16 11095.38,13315.73 11067.81,13106.91 11339.08,12811.89 11309.61,12781.78 11399.29,12752.95 11399.93,12693.37 11281.73,12602.73 11192.36,12601.78 11193.63,12482.63 11134.69,12422.41 11074.79,12451.57 11016.18,12361.58 10865.97,12479.14 10807.34,12389.15 10657.46,12476.91 10538.94,12416.07 10570.95,12207.88 10392.85,12146.4 10423.91,12027.56 10308.56,11668.84 10311.1,11430.54 10372.27,11282.23 10253.76,11221.39 10253.12,11280.96 10193.23,11310.12 10164.71,11190.65 " fill="#000000"/>
  </g>
  <g>
   <polygon class="fil0" points="12643.72,13391.81 12613.61,13421.28 12913.71,13215.95 12974.87,13067.64 12946.03,12977.95 12856.67,12977 12857.3,12917.43 12649.11,12885.42 12650.38,12766.27 12531.86,12705.43 12443.45,12615.11 12444.08,12555.53 12354.4,12584.37 12236.52,12463.94 12327.15,12345.75 12297.99,12285.86 12357.57,12286.49 12239.7,12166.07 12150.02,12194.91 12088.85,12343.22 12029.27,12342.58 11969.06,12401.52 12028.64,12402.16 11818.54,12548.87 11848.02,12578.97 11758.97,12548.23 11757.7,12667.39 11698.76,12607.18 11668.65,12636.65 11697.49,12726.33 11637.27,12785.27 11369.51,12752.63 11278.87,12870.82 11484.84,13111.35 11483.89,13200.71 11543.47,13201.35 11542.2,13320.49 11601.14,13380.7 11989.65,13265.67 12049.23,13266.31 12019.12,13295.78 12078.06,13355.99 12138.91,13237.47 12615.2,13272.34 " fill="#000000"/>
   <polygon id="1" class="fil1 str0" points="12643.72,13391.81 12613.61,13421.28 12913.71,13215.95 12974.87,13067.64 12946.03,12977.95 12856.67,12977 12857.3,12917.43 12649.11,12885.42 12650.38,12766.27 12531.86,12705.43 12443.45,12615.11 12444.08,12555.53 12354.4,12584.37 12236.52,12463.94 12327.15,12345.75 12297.99,12285.86 12357.57,12286.49 12239.7,12166.07 12150.02,12194.91 12088.85,12343.22 12029.27,12342.58 11969.06,12401.52 12028.64,12402.16 11818.54,12548.87 11848.02,12578.97 11758.97,12548.23 11757.7,12667.39 11698.76,12607.18 11668.65,12636.65 11697.49,12726.33 11637.27,12785.27 11369.51,12752.63 11278.87,12870.82 11484.84,13111.35 11483.89,13200.71 11543.47,13201.35 11542.2,13320.49 11601.14,13380.7 11989.65,13265.67 12049.23,13266.31 12019.12,13295.78 12078.06,13355.99 12138.91,13237.47 12615.2,13272.34 " fill="#000000"/>
  </g>
  <g>
   <polygon class="fil0" points="13004.66,13067.96 12913.71,13215.95 12703.92,13332.87 12583.19,13480.54 12672.24,13511.28 12729.26,13750.21 12818.95,13721.38 12877.89,13781.59 12875.35,14019.9 12964.08,14080.42 12964.71,14020.85 13054.4,13992.01 13172.91,14052.86 13352.91,13935.61 13206.19,13725.5 13238.2,13517.31 13119.68,13456.46 13300.95,13220.07 13092.12,13247.63 " fill="#000000"/>
   <polygon id="1" class="fil1 str0" points="13004.66,13067.96 12913.71,13215.95 12703.92,13332.87 12583.19,13480.54 12672.24,13511.28 12729.26,13750.21 12818.95,13721.38 12877.89,13781.59 12875.35,14019.9 12964.08,14080.42 12964.71,14020.85 13054.4,13992.01 13172.91,14052.86 13352.91,13935.61 13206.19,13725.5 13238.2,13517.31 13119.68,13456.46 13300.95,13220.07 13092.12,13247.63 " fill="#000000"/>
  </g>
  <g>
   <polygon class="fil0" points="10904.68,8845.03 10606.17,8901.44 9951.15,8864.67 10096.29,9223.71 10034.17,9461.38 10093.43,9491.8 10092.8,9551.38 10003.11,9580.2 10003.75,9520.64 9734.71,9607.14 9618.41,9337.78 9498.94,9366.3 9497.99,9455.67 9380.12,9335.24 9467.9,9485.14 9611.43,9993.11 9752.76,10709.61 9750.54,10918.12 9837.68,11127.59 9596.2,11422.93 9655.78,11423.56 9655.14,11483.14 9743.56,11573.45 9862.71,11574.72 9982.49,11516.42 9925.45,11277.47 10043.97,11338.32 10044.6,11278.74 10134.92,11190.33 10193.55,11280.33 10253.12,11280.96 10223.65,11250.86 10313.64,11192.23 10313.01,11251.81 10372.58,11252.44 10309.83,11549.7 10423.59,12057.35 10393.17,12116.61 10452.11,12176.82 10571.27,12178.09 10538.94,12416.07 10657.46,12476.91 10807.34,12389.15 10865.97,12479.14 10986.39,12361.26 11045.02,12451.25 11164.48,12422.73 11163.21,12541.89 11400.25,12663.58 11369.51,12752.63 11637.27,12785.27 11697.49,12726.33 11668.65,12636.65 11698.76,12607.18 11757.7,12667.39 11758.97,12548.23 11848.02,12578.97 11818.54,12548.87 11878.76,12489.93 11908.22,12520.03 12179.8,12195.22 12180.44,12135.65 11972.55,12073.85 11913.61,12013.64 11705.42,11981.64 11767.54,11743.96 11740.29,11505.35 11799.86,11505.98 11831.87,11297.78 11803.99,11118.74 11864.52,11030.01 11755.2,10105.32 11760.91,9569.15 11588.21,9001.27 " fill="#000000"/>
   <polygon id="1" class="fil1 str0" points="10904.68,8845.03 10606.17,8901.44 9951.15,8864.67 10096.29,9223.71 10034.17,9461.38 10093.43,9491.8 10092.8,9551.38 10003.11,9580.2 10003.75,9520.64 9734.71,9607.14 9618.41,9337.78 9498.94,9366.3 9497.99,9455.67 9380.12,9335.24 9467.9,9485.14 9611.43,9993.11 9752.76,10709.61 9750.54,10918.12 9837.68,11127.59 9596.2,11422.93 9655.78,11423.56 9655.14,11483.14 9743.56,11573.45 9862.71,11574.72 9982.49,11516.42 9925.45,11277.47 10043.97,11338.32 10044.6,11278.74 10134.92,11190.33 10193.55,11280.33 10253.12,11280.96 10223.65,11250.86 10313.64,11192.23 10313.01,11251.81 10372.58,11252.44 10309.83,11549.7 10423.59,12057.35 10393.17,12116.61 10452.11,12176.82 10571.27,12178.09 10538.94,12416.07 10657.46,12476.91 10807.34,12389.15 10865.97,12479.14 10986.39,12361.26 11045.02,12451.25 11164.48,12422.73 11163.21,12541.89 11400.25,12663.58 11369.51,12752.63 11637.27,12785.27 11697.49,12726.33 11668.65,12636.65 11698.76,12607.18 11757.7,12667.39 11758.97,12548.23 11848.02,12578.97 11818.54,12548.87 11878.76,12489.93 11908.22,12520.03 12179.8,12195.22 12180.44,12135.65 11972.55,12073.85 11913.61,12013.64 11705.42,11981.64 11767.54,11743.96 11740.29,11505.35 11799.86,11505.98 11831.87,11297.78 11803.99,11118.74 11864.52,11030.01 11755.2,10105.32 11760.91,9569.15 11588.21,9001.27 " fill="#000000"/>
  </g>
  <g>
   <polygon class="fil0" points="13322.48,13994.87 13293.01,13964.76 13113.33,14052.22 13054.4,13992.01 12964.71,14020.85 12842.39,14317.45 12841.12,14436.61 12900.7,14437.24 12899.74,14526.6 12989.43,14497.76 12988.16,14616.92 12867.73,14734.8 12895.94,14884.05 12714.67,15120.45 12624.99,15149.29 12566.05,15089.08 12594.89,15178.76 12535.31,15178.13 12622.77,15357.8 12772.02,15329.6 12802.76,15240.56 12920.65,15360.97 12889.91,15450.02 12800.22,15478.86 12858.85,15568.86 12888.95,15539.39 12947.9,15599.6 12888.32,15598.96 12887.05,15718.11 12946.63,15718.74 12945.99,15778.32 13093.97,15869.27 13213.13,15870.54 13092.07,16048 13151.64,16048.64 13272.07,15930.75 13334.18,15693.08 13274.61,15692.44 13275.24,15632.88 13336.72,15454.78 13218.84,15334.36 13188.73,15363.83 13129.79,15303.62 13010.65,15302.35 12863.29,15151.83 12923.5,15092.89 13012.55,15123.63 13073.4,15005.11 13311.06,15067.22 13431.48,14949.34 13520.52,14980.08 13610.84,14891.66 13728.72,15012.09 13758.83,14982.62 13758.19,15042.19 13817.77,15042.83 13788.93,14953.15 13849.15,14894.2 13849.78,14834.64 13819.68,14864.11 13820.31,14804.53 13760.73,14803.9 13733.17,14595.06 13794.01,14476.54 13648.24,14177.08 " fill="#000000"/>
   <polygon id="1" class="fil1 str0" points="13322.48,13994.87 13293.01,13964.76 13113.33,14052.22 13054.4,13992.01 12964.71,14020.85 12842.39,14317.45 12841.12,14436.61 12900.7,14437.24 12899.74,14526.6 12989.43,14497.76 12988.16,14616.92 12867.73,14734.8 12895.94,14884.05 12714.67,15120.45 12624.99,15149.29 12566.05,15089.08 12594.89,15178.76 12535.31,15178.13 12622.77,15357.8 12772.02,15329.6 12802.76,15240.56 12920.65,15360.97 12889.91,15450.02 12800.22,15478.86 12858.85,15568.86 12888.95,15539.39 12947.9,15599.6 12888.32,15598.96 12887.05,15718.11 12946.63,15718.74 12945.99,15778.32 13093.97,15869.27 13213.13,15870.54 13092.07,16048 13151.64,16048.64 13272.07,15930.75 13334.18,15693.08 13274.61,15692.44 13275.24,15632.88 13336.72,15454.78 13218.84,15334.36 13188.73,15363.83 13129.79,15303.62 13010.65,15302.35 12863.29,15151.83 12923.5,15092.89 13012.55,15123.63 13073.4,15005.11 13311.06,15067.22 13431.48,14949.34 13520.52,14980.08 13610.84,14891.66 13728.72,15012.09 13758.83,14982.62 13758.19,15042.19 13817.77,15042.83 13788.93,14953.15 13849.15,14894.2 13849.78,14834.64 13819.68,14864.11 13820.31,14804.53 13760.73,14803.9 13733.17,14595.06 13794.01,14476.54 13648.24,14177.08 " fill="#000000"/>
  </g>
  <g>
   <polygon class="fil0" points="12832.55,15240.88 12772.97,15240.24 12802.44,15270.34 12652.56,15358.12 12415.52,15236.43 12384.15,15385.05 12264.99,15383.78 12264.36,15443.36 12085.32,15471.24 11966.17,15469.97 11937.33,15380.29 11877.75,15379.65 11819.14,15289.65 11788.4,15378.7 11461.04,15345.42 11460.41,15405 11520.3,15375.85 11548.19,15554.89 11607.13,15615.11 11576.39,15704.14 11694.91,15764.99 11605.22,15793.83 11723.11,15914.25 11781.1,16063.83 11930.35,16035.63 11929.71,16095.19 11989.29,16095.83 12077.7,16186.14 12256.42,16188.05 12287.16,16099 12227.6,16098.36 12198.76,16008.69 12258.33,16009.33 12257.69,16068.9 12347.38,16040.07 12376.21,16129.74 12436.42,16070.81 12406.95,16040.7 12556.21,16012.5 12615.16,16072.71 12764.4,16044.51 12792.61,16193.76 12854.72,15956.1 12913.67,16016.31 12943.77,15986.84 12972.61,16076.52 13091.75,16077.79 13213.13,15870.54 12945.68,15808.11 12946.63,15718.74 12887.05,15718.11 12888.32,15598.96 12947.9,15599.6 12888.95,15539.39 12858.85,15568.86 12800.54,15449.07 12889.59,15479.81 12920.96,15331.18 " fill="#000000"/>
   <polygon id="1" class="fil1 str0" points="12832.55,15240.88 12772.97,15240.24 12802.44,15270.34 12652.56,15358.12 12415.52,15236.43 12384.15,15385.05 12264.99,15383.78 12264.36,15443.36 12085.32,15471.24 11966.17,15469.97 11937.33,15380.29 11877.75,15379.65 11819.14,15289.65 11788.4,15378.7 11461.04,15345.42 11460.41,15405 11520.3,15375.85 11548.19,15554.89 11607.13,15615.11 11576.39,15704.14 11694.91,15764.99 11605.22,15793.83 11723.11,15914.25 11781.1,16063.83 11930.35,16035.63 11929.71,16095.19 11989.29,16095.83 12077.7,16186.14 12256.42,16188.05 12287.16,16099 12227.6,16098.36 12198.76,16008.69 12258.33,16009.33 12257.69,16068.9 12347.38,16040.07 12376.21,16129.74 12436.42,16070.81 12406.95,16040.7 12556.21,16012.5 12615.16,16072.71 12764.4,16044.51 12792.61,16193.76 12854.72,15956.1 12913.67,16016.31 12943.77,15986.84 12972.61,16076.52 13091.75,16077.79 13213.13,15870.54 12945.68,15808.11 12946.63,15718.74 12887.05,15718.11 12888.32,15598.96 12947.9,15599.6 12888.95,15539.39 12858.85,15568.86 12800.54,15449.07 12889.59,15479.81 12920.96,15331.18 " fill="#000000"/>
  </g>
  <g>
   <polygon class="fil0" points="11745,13858.9 11595.43,13916.89 11536.17,13886.46 11446.18,13945.09 11475.64,13975.19 11385.01,14093.39 11325.44,14092.75 11384.06,14182.75 11353.64,14242.01 11411.63,14391.59 11471.83,14332.65 11530.77,14392.86 11740.24,14305.71 11829.29,14336.45 11859.4,14306.98 11800.46,14246.77 11890.76,14158.36 11979.49,14218.89 12098.97,14190.37 12070.45,14070.9 11982.03,13980.59 11862.89,13979.32 11774.79,13859.21 " fill="#000000"/>
   <polygon id="1" class="fil1 str0" points="11745,13858.9 11595.43,13916.89 11536.17,13886.46 11446.18,13945.09 11475.64,13975.19 11385.01,14093.39 11325.44,14092.75 11384.06,14182.75 11353.64,14242.01 11411.63,14391.59 11471.83,14332.65 11530.77,14392.86 11740.24,14305.71 11829.29,14336.45 11859.4,14306.98 11800.46,14246.77 11890.76,14158.36 11979.49,14218.89 12098.97,14190.37 12070.45,14070.9 11982.03,13980.59 11862.89,13979.32 11774.79,13859.21 " fill="#000000"/>
  </g>
  <g>
   <polygon class="fil0" points="11359.03,13735.62 11150.2,13763.18 11149.56,13822.76 11059.24,13911.17 10999.68,13910.54 11057.34,14089.89 11233.53,14330.11 11232.26,14449.25 11321.31,14479.99 11351.74,14420.74 11441.1,14421.69 11381.52,14421.06 11412.26,14332.01 11325.44,14092.75 11385.01,14093.39 11475.64,13975.19 11447.45,13825.93 " fill="#000000"/>
   <polygon id="1" class="fil1 str0" points="11359.03,13735.62 11150.2,13763.18 11149.56,13822.76 11059.24,13911.17 10999.68,13910.54 11057.34,14089.89 11233.53,14330.11 11232.26,14449.25 11321.31,14479.99 11351.74,14420.74 11441.1,14421.69 11381.52,14421.06 11412.26,14332.01 11325.44,14092.75 11385.01,14093.39 11475.64,13975.19 11447.45,13825.93 " fill="#000000"/>
  </g>
  <g>
   <polygon class="fil0" points="11278.87,12870.82 11188.55,12959.23 11218.02,12989.34 11098.24,13047.65 11127.71,13077.75 11067.49,13136.69 11095.38,13315.73 11213.26,13436.16 11211.36,13614.89 11120.41,13762.87 11149.88,13792.97 11239.88,13734.35 11359.03,13735.62 11476.27,13915.62 11565.64,13916.57 11715.22,13858.58 11805.53,13770.16 11806.17,13710.59 11687.01,13709.32 11717.12,13679.85 11539.66,13558.8 11599.87,13499.86 11601.14,13380.7 11542.2,13320.49 11572.62,13261.23 11483.89,13200.71 11455.38,13081.24 " fill="#000000"/>
   <polygon id="1" class="fil1 str0" points="11278.87,12870.82 11188.55,12959.23 11218.02,12989.34 11098.24,13047.65 11127.71,13077.75 11067.49,13136.69 11095.38,13315.73 11213.26,13436.16 11211.36,13614.89 11120.41,13762.87 11149.88,13792.97 11239.88,13734.35 11359.03,13735.62 11476.27,13915.62 11565.64,13916.57 11715.22,13858.58 11805.53,13770.16 11806.17,13710.59 11687.01,13709.32 11717.12,13679.85 11539.66,13558.8 11599.87,13499.86 11601.14,13380.7 11542.2,13320.49 11572.62,13261.23 11483.89,13200.71 11455.38,13081.24 " fill="#000000"/>
  </g>
  <g>
   <polygon class="fil0" points="13493.68,9110.95 13017.07,9105.87 12927.07,9164.5 12956.23,9224.38 13015.81,9225.02 13015.17,9284.59 13193.89,9286.5 13193.26,9346.07 13133.37,9375.23 12984.43,9373.64 12948.93,9909.51 13068.08,9910.78 12948.29,9969.08 13037.66,9970.04 13066.5,10059.71 13600.76,10244.15 13839.07,10246.69 13837.8,10365.84 13896.43,10455.83 13863.78,10723.61 13923.04,10754.04 13862.2,10872.54 13951.23,10903.28 13890.08,11051.59 13711.67,11019.9 13739.24,11228.73 13709.76,11198.63 13589.98,11256.93 13618.49,11376.4 13558.28,11435.34 13616.91,11525.34 13676.48,11525.98 13766.8,11437.56 14003.83,11559.26 14064.04,11500.31 14005.73,11380.52 14036.16,11321.26 14035.52,11380.84 14125.21,11352.01 14217.11,11114.66 14187.64,11084.55 14277.96,10996.14 14219.01,10935.93 14340.07,10758.48 14340.71,10698.9 14251.66,10668.16 14282.4,10579.11 14822.7,10197.58 14735.25,10017.9 14855.34,9929.82 14617.04,9927.28 14647.78,9838.23 14439.58,9806.22 14470.32,9717.17 14411.38,9656.96 14291.6,9715.27 14321.71,9685.8 14204.14,9535.59 14144.56,9534.96 14054.25,9623.36 13877.43,9442.74 13788.06,9441.79 13729.76,9322 13521.56,9289.99 " fill="#000000"/>
   <polygon id="1" class="fil1 str0" points="13493.68,9110.95 13017.07,9105.87 12927.07,9164.5 12956.23,9224.38 13015.81,9225.02 13015.17,9284.59 13193.89,9286.5 13193.26,9346.07 13133.37,9375.23 12984.43,9373.64 12948.93,9909.51 13068.08,9910.78 12948.29,9969.08 13037.66,9970.04 13066.5,10059.71 13600.76,10244.15 13839.07,10246.69 13837.8,10365.84 13896.43,10455.83 13863.78,10723.61 13923.04,10754.04 13862.2,10872.54 13951.23,10903.28 13890.08,11051.59 13711.67,11019.9 13739.24,11228.73 13709.76,11198.63 13589.98,11256.93 13618.49,11376.4 13558.28,11435.34 13616.91,11525.34 13676.48,11525.98 13766.8,11437.56 14003.83,11559.26 14064.04,11500.31 14005.73,11380.52 14036.16,11321.26 14035.52,11380.84 14125.21,11352.01 14217.11,11114.66 14187.64,11084.55 14277.96,10996.14 14219.01,10935.93 14340.07,10758.48 14340.71,10698.9 14251.66,10668.16 14282.4,10579.11 14822.7,10197.58 14735.25,10017.9 14855.34,9929.82 14617.04,9927.28 14647.78,9838.23 14439.58,9806.22 14470.32,9717.17 14411.38,9656.96 14291.6,9715.27 14321.71,9685.8 14204.14,9535.59 14144.56,9534.96 14054.25,9623.36 13877.43,9442.74 13788.06,9441.79 13729.76,9322 13521.56,9289.99 " fill="#000000"/>
  </g>
  <g>
   <polygon class="fil0" points="13615,11704.06 13525.96,11673.32 13467.66,11553.54 13287.34,11700.57 13375.75,11790.89 13345.65,11820.36 13196.07,11878.35 13166.92,11818.46 12866.19,12083.37 12837.03,12023.47 12775.87,12171.78 12864.28,12262.1 12802.17,12499.76 12741.96,12558.71 12770.16,12707.97 12650.7,12736.48 12649.43,12855.63 12708.36,12915.84 12946.03,12977.95 13092.12,13247.63 13211.26,13248.9 13242,13159.86 13360.21,13250.48 13479.68,13221.98 13569.98,13133.56 13541.46,13014.09 13481.9,13013.46 13542.1,12954.51 13631.78,12925.68 13719.56,13075.57 13779.77,13016.63 13690.72,12985.89 13691.36,12926.31 13780.41,12957.05 13900.2,12898.74 13870.73,12868.64 13930.29,12869.27 14020.61,12780.87 13991.14,12750.76 14081.45,12662.35 14141.03,12662.99 14024.42,12423.42 13935.37,12392.68 13966.11,12303.63 13877.07,12272.89 13846.65,12332.15 13787.07,12331.51 13759.5,12122.68 13640.35,12121.41 13641.94,11972.48 13702.78,11853.96 13761.73,11914.17 13821.3,11914.8 13851.73,11855.54 13792.78,11795.33 13673.63,11794.06 13674.58,11704.7 13793.74,11705.97 13882.47,11766.5 13912.57,11737.02 13795,11586.82 " fill="#000000"/>
   <polygon id="1" class="fil1 str0" points="13615,11704.06 13525.96,11673.32 13467.66,11553.54 13287.34,11700.57 13375.75,11790.89 13345.65,11820.36 13196.07,11878.35 13166.92,11818.46 12866.19,12083.37 12837.03,12023.47 12775.87,12171.78 12864.28,12262.1 12802.17,12499.76 12741.96,12558.71 12770.16,12707.97 12650.7,12736.48 12649.43,12855.63 12708.36,12915.84 12946.03,12977.95 13092.12,13247.63 13211.26,13248.9 13242,13159.86 13360.21,13250.48 13479.68,13221.98 13569.98,13133.56 13541.46,13014.09 13481.9,13013.46 13542.1,12954.51 13631.78,12925.68 13719.56,13075.57 13779.77,13016.63 13690.72,12985.89 13691.36,12926.31 13780.41,12957.05 13900.2,12898.74 13870.73,12868.64 13930.29,12869.27 14020.61,12780.87 13991.14,12750.76 14081.45,12662.35 14141.03,12662.99 14024.42,12423.42 13935.37,12392.68 13966.11,12303.63 13877.07,12272.89 13846.65,12332.15 13787.07,12331.51 13759.5,12122.68 13640.35,12121.41 13641.94,11972.48 13702.78,11853.96 13761.73,11914.17 13821.3,11914.8 13851.73,11855.54 13792.78,11795.33 13673.63,11794.06 13674.58,11704.7 13793.74,11705.97 13882.47,11766.5 13912.57,11737.02 13795,11586.82 " fill="#000000"/>
  </g>
  <g>
   <polygon class="fil0" points="12168.38,13267.58 12138.91,13237.47 12137.96,13326.84 12078.06,13355.99 12019.12,13295.78 12049.23,13266.31 11989.65,13265.67 11630.93,13381.02 11599.55,13529.65 11539.98,13529.01 11864.79,13800.59 11954.47,13771.75 12016.26,13563.88 12136.69,13445.99 12137.32,13386.42 12316.04,13388.32 12345.2,13448.21 12464.03,13479.27 12583.19,13480.54 12643.72,13391.81 12615.2,13272.34 12287.52,13268.85 " fill="#000000"/>
   <polygon id="1" class="fil1 str0" points="12168.38,13267.58 12138.91,13237.47 12137.96,13326.84 12078.06,13355.99 12019.12,13295.78 12049.23,13266.31 11989.65,13265.67 11630.93,13381.02 11599.55,13529.65 11539.98,13529.01 11864.79,13800.59 11954.47,13771.75 12016.26,13563.88 12136.69,13445.99 12137.32,13386.42 12316.04,13388.32 12345.2,13448.21 12464.03,13479.27 12583.19,13480.54 12643.72,13391.81 12615.2,13272.34 12287.52,13268.85 " fill="#000000"/>
  </g>
  <g>
   <polygon class="fil0" points="12256.48,13387.68 12137.32,13386.42 11954.78,13741.96 11835,13800.27 11806.17,13710.59 11745.32,13829.11 11892.67,13979.64 12070.45,14070.9 12099.6,14130.79 12039.71,14159.94 12157.27,14310.16 12306.52,14281.95 12337.58,14163.12 12426.63,14193.86 12396.52,14223.33 12515.99,14194.81 12485.25,14283.86 12544.2,14344.07 12603.46,14374.49 12633.88,14315.23 12722.28,14405.55 12721.65,14465.12 12811.01,14466.07 12873.13,14228.41 12964.08,14080.42 12875.03,14049.69 12878.21,13751.8 12759.05,13750.53 12670.65,13660.21 12671.92,13541.07 12612.98,13480.86 12345.2,13448.21 12286.25,13388 " fill="#000000"/>
   <polygon id="1" class="fil1 str0" points="12256.48,13387.68 12137.32,13386.42 11954.78,13741.96 11835,13800.27 11806.17,13710.59 11745.32,13829.11 11892.67,13979.64 12070.45,14070.9 12099.6,14130.79 12039.71,14159.94 12157.27,14310.16 12306.52,14281.95 12337.58,14163.12 12426.63,14193.86 12396.52,14223.33 12515.99,14194.81 12485.25,14283.86 12544.2,14344.07 12603.46,14374.49 12633.88,14315.23 12722.28,14405.55 12721.65,14465.12 12811.01,14466.07 12873.13,14228.41 12964.08,14080.42 12875.03,14049.69 12878.21,13751.8 12759.05,13750.53 12670.65,13660.21 12671.92,13541.07 12612.98,13480.86 12345.2,13448.21 12286.25,13388 " fill="#000000"/>
  </g>
  <g>
   <polygon class="fil0" points="11979.49,14218.89 11919.92,14218.25 11890.76,14158.36 11800.46,14246.77 11859.4,14306.98 11829.29,14336.45 11650.88,14304.76 11590.35,14393.49 11471.83,14332.65 11381.52,14421.06 11441.1,14421.69 11410.36,14510.73 11500.03,14481.89 11528.87,14571.58 11468.66,14630.52 11525.7,14869.45 11672.42,15079.56 11850.2,15170.83 11910.4,15111.89 11852.1,14992.1 12001.98,14904.32 12061.56,14904.95 12119.87,15024.74 12359.44,14908.13 12241.56,14787.71 12211.46,14817.18 12152.51,14756.97 12153.78,14637.82 12064.73,14607.08 12215.26,14459.72 12274.83,14460.36 12276.73,14281.64 12187.06,14310.47 12098.65,14220.16 " fill="#000000"/>
   <polygon id="1" class="fil1 str0" points="11979.49,14218.89 11919.92,14218.25 11890.76,14158.36 11800.46,14246.77 11859.4,14306.98 11829.29,14336.45 11650.88,14304.76 11590.35,14393.49 11471.83,14332.65 11381.52,14421.06 11441.1,14421.69 11410.36,14510.73 11500.03,14481.89 11528.87,14571.58 11468.66,14630.52 11525.7,14869.45 11672.42,15079.56 11850.2,15170.83 11910.4,15111.89 11852.1,14992.1 12001.98,14904.32 12061.56,14904.95 12119.87,15024.74 12359.44,14908.13 12241.56,14787.71 12211.46,14817.18 12152.51,14756.97 12153.78,14637.82 12064.73,14607.08 12215.26,14459.72 12274.83,14460.36 12276.73,14281.64 12187.06,14310.47 12098.65,14220.16 " fill="#000000"/>
  </g>
 </g>
</svg>