<svg xmlns="http://www.w3.org/2000/svg" xmlns:xlink="http://www.w3.org/1999/xlink" xml:space="preserve" width="215.9mm" height="279.4mm" version="1.1" style="shape-rendering:geometricPrecision; text-rendering:geometricPrecision; image-rendering:optimizeQuality; fill-rule:evenodd; clip-rule:evenodd" viewBox="0 0 21590 27940">
 <defs fill="#000000">
  <style type="text/css">
   <![CDATA[
    .str1 {stroke:#FEFEFE;stroke-width:35.28;stroke-miterlimit:22.9256}
    .str0 {stroke:#FEFEFE;stroke-width:35.28;stroke-linecap:round;stroke-linejoin:round;stroke-miterlimit:22.9256}
    .str2 {stroke:#FEFEFE;stroke-width:35.28;stroke-linecap:round;stroke-linejoin:round;stroke-miterlimit:22.9256}
    .fil1 {fill:none}
    .fil2 {fill:#055a1c}
    .fil0 {fill:#055a1c}
   ]]>
  </style>
 </defs>
 <g id="Capa_x0020_1">
  <metadata id="CorelCorpID_0Corel-Layer" fill="#000000"/>
  <g>
   <polygon class="fil0" points="11697.01,14009.98 11485.31,14305.63 11336.06,14333.84 11303.42,14601.62 11065.75,14539.5 11003,14836.74 10883.54,14865.26 10967.18,15402.39 10668.03,15518.36 10549.51,15457.52 10429.1,15575.4 10309.63,15603.92 10042.18,15541.49 9983.55,15451.49 9863.77,15509.8 9950.91,15719.27 10040.59,15690.43 10039.32,15809.58 10427.83,15694.56 10395.51,15932.54 10810.63,16115.71 10871.79,15967.4 10664.54,15846.03 10724.76,15787.09 10932.96,15819.1 10933.91,15729.74 11053.37,15701.22 10930.74,16027.61 11049.88,16028.88 11227.34,16149.94 11229.56,15941.42 11377.86,16002.58 11439.02,15854.28 11557.54,15915.12 11734.05,16125.55 11854.47,16007.66 12001.82,16158.19 11909.92,16395.54 11668.76,16661.09 11637.39,16809.71 11607.92,16779.6 11547.71,16838.55 11606.97,16868.97 11576.22,16958.02 11338.24,16925.69 11310.04,16776.43 11160.78,16804.63 11222.9,16566.97 11430.77,16628.77 11461.2,16569.51 11401.62,16568.87 11372.46,16508.98 11193.43,16536.86 11046.07,16386.33 10868.3,16295.06 10780.52,16145.18 10691.48,16114.44 10631.26,16173.38 10452.54,16171.48 10392.33,16230.42 10214.87,16109.36 9917,16106.19 9828.26,16045.66 9829.22,15956.29 9528.17,16251 9676.79,16282.37 9615.31,16460.47 9674.26,16520.68 9581.72,16817.6 9846.63,17118.33 9965.78,17119.6 10086.52,16971.94 10145.46,17032.15 10205.67,16973.21 10380.91,17302.78 10589.73,17275.21 10588.78,17364.57 10735.19,17604.46 10701.59,17961.59 10817.57,18260.75 10667.68,18348.51 10785.56,18468.94 10753.55,18677.14 10873.66,18589.04 11257.41,18920.83 11317.94,18832.1 11141.43,18621.69 11350.25,18594.12 11380.99,18505.07 11440.25,18535.5 11472.9,18267.73 11887.07,18540.26 11947.6,18451.53 12096.86,18423.32 12217.91,18245.87 12395.68,18337.13 12486.95,18159.36 12604.83,18279.79 12664.72,18250.63 12578.21,17981.58 12608.32,17952.11 12667.9,17952.75 12756.31,18043.06 12724.93,18191.69 12904.62,18104.23 12966.72,17866.57 12728.11,17893.82 12879.91,17627.31 12852.97,17358.9 13063.7,17152.6 13035.18,17033.14 13005.08,17062.61 12827.63,16941.56 12799.74,16762.51 12917.95,16853.14 12919.85,16674.42 13129.31,16587.28 13010.79,16526.43 13013.01,16317.91 12747.78,16046.97 12658.1,16075.81 12629.9,15926.55 12512.02,15806.13 12542.13,15776.66 12512.02,15806.13 12512.66,15746.56 12336.15,15536.13 12723.71,15510.47 12576.36,15359.95 12636.56,15301.01 12370.7,15089.63 12462.6,14852.29 12374.19,14761.97 12106.74,14699.54 12109.27,14461.24 12199.9,14343.04 12050.65,14371.24 11874.46,14131.04 " fill="#000000"/>
   <polygon id="1" class="fil1 str0" points="11697.01,14009.98 11485.31,14305.63 11336.06,14333.84 11303.42,14601.62 11065.75,14539.5 11003,14836.74 10883.54,14865.26 10967.18,15402.39 10668.03,15518.36 10549.51,15457.52 10429.1,15575.4 10309.63,15603.92 10042.18,15541.49 9983.55,15451.49 9863.77,15509.8 9950.91,15719.27 10040.59,15690.43 10039.32,15809.58 10427.83,15694.56 10395.51,15932.54 10810.63,16115.71 10871.79,15967.4 10664.54,15846.03 10724.76,15787.09 10932.96,15819.1 10933.91,15729.74 11053.37,15701.22 10930.74,16027.61 11049.88,16028.88 11227.34,16149.94 11229.56,15941.42 11377.86,16002.58 11439.02,15854.28 11557.54,15915.12 11734.05,16125.55 11854.47,16007.66 12001.82,16158.19 11909.92,16395.54 11668.76,16661.09 11637.39,16809.71 11607.92,16779.6 11547.71,16838.55 11606.97,16868.97 11576.22,16958.02 11338.24,16925.69 11310.04,16776.43 11160.78,16804.63 11222.9,16566.97 11430.77,16628.77 11461.2,16569.51 11401.62,16568.87 11372.46,16508.98 11193.43,16536.86 11046.07,16386.33 10868.3,16295.06 10780.52,16145.18 10691.48,16114.44 10631.26,16173.38 10452.54,16171.48 10392.33,16230.42 10214.87,16109.36 9917,16106.19 9828.26,16045.66 9829.22,15956.29 9528.17,16251 9676.79,16282.37 9615.31,16460.47 9674.26,16520.68 9581.72,16817.6 9846.63,17118.33 9965.78,17119.6 10086.52,16971.94 10145.46,17032.15 10205.67,16973.21 10380.91,17302.78 10589.73,17275.21 10588.78,17364.57 10735.19,17604.46 10701.59,17961.59 10817.57,18260.75 10667.68,18348.51 10785.56,18468.94 10753.55,18677.14 10873.66,18589.04 11257.41,18920.83 11317.94,18832.1 11141.43,18621.69 11350.25,18594.12 11380.99,18505.07 11440.25,18535.5 11472.9,18267.73 11887.07,18540.26 11947.6,18451.53 12096.86,18423.32 12217.91,18245.87 12395.68,18337.13 12486.95,18159.36 12604.83,18279.79 12664.72,18250.63 12578.21,17981.58 12608.32,17952.11 12667.9,17952.75 12756.31,18043.06 12724.93,18191.69 12904.62,18104.23 12966.72,17866.57 12728.11,17893.82 12879.91,17627.31 12852.97,17358.9 13063.7,17152.6 13035.18,17033.14 13005.08,17062.61 12827.63,16941.56 12799.74,16762.51 12917.95,16853.14 12919.85,16674.42 13129.31,16587.28 13010.79,16526.43 13013.01,16317.91 12747.78,16046.97 12658.1,16075.81 12629.9,15926.55 12512.02,15806.13 12542.13,15776.66 12512.02,15806.13 12512.66,15746.56 12336.15,15536.13 12723.71,15510.47 12576.36,15359.95 12636.56,15301.01 12370.7,15089.63 12462.6,14852.29 12374.19,14761.97 12106.74,14699.54 12109.27,14461.24 12199.9,14343.04 12050.65,14371.24 11874.46,14131.04 " fill="#000000"/>
  </g>
  <g>
   <polygon class="fil0" points="11549.33,13889.24 11639.65,13800.84 11728.38,13861.36 11908.69,13714.33 11613.67,13443.06 11763.88,13325.5 11734.73,13265.61 11587.05,13144.87 11408.32,13142.96 11320.56,12993.08 11200.13,13110.95 11107.59,13407.89 10932.05,13108.1 10691.83,13284.29 10485.55,13073.55 10394.59,13221.54 10276.07,13160.69 10070.42,12890.38 9951.59,12859.33 9977.57,13217.1 10065.66,13337.2 9975.98,13366.04 9975.34,13425.6 9709.16,13244.03 9619.8,13243.08 9499.06,13390.75 9410.01,13360.01 9410.64,13300.43 9145.1,13059.27 8995.84,13087.47 8877.33,13026.62 8668.81,13024.4 8668.17,13083.98 8816.8,13115.35 8877.01,13056.41 9024.67,13177.15 9315.26,13865.44 9313.35,14044.17 9103.25,14190.89 9159.33,14519.19 9543.4,14821.19 9482.87,14909.92 9572.24,14910.87 9632.45,14851.93 9663.51,14733.09 9844.45,14526.49 9992.44,14617.44 9906.56,14288.82 10145.19,14261.57 9996.88,14200.41 9967.73,14140.52 10057.41,14111.68 10088.15,14022.63 10176.24,14142.74 10297.3,13965.28 10592.63,14206.76 10502.96,14235.58 10532.43,14265.69 10890.2,14239.71 10955.49,13704.17 10924.75,13793.22 10867.07,13613.86 11280.3,13975.75 11401.02,13828.08 11460.6,13828.71 " fill="#000000"/>
   <polygon id="1" class="fil1 str1" points="11549.33,13889.24 11639.65,13800.84 11728.38,13861.36 11908.69,13714.33 11613.67,13443.06 11763.88,13325.5 11734.73,13265.61 11587.05,13144.87 11408.32,13142.96 11320.56,12993.08 11200.13,13110.95 11107.59,13407.89 10932.05,13108.1 10691.83,13284.29 10485.55,13073.55 10394.59,13221.54 10276.07,13160.69 10070.42,12890.38 9951.59,12859.33 9977.57,13217.1 10065.66,13337.2 9975.98,13366.04 9975.34,13425.6 9709.16,13244.03 9619.8,13243.08 9499.06,13390.75 9410.01,13360.01 9410.64,13300.43 9145.1,13059.27 8995.84,13087.47 8877.33,13026.62 8668.81,13024.4 8668.17,13083.98 8816.8,13115.35 8877.01,13056.41 9024.67,13177.15 9315.26,13865.44 9313.35,14044.17 9103.25,14190.89 9159.33,14519.19 9543.4,14821.19 9482.87,14909.92 9572.24,14910.87 9632.45,14851.93 9663.51,14733.09 9844.45,14526.49 9992.44,14617.44 9906.56,14288.82 10145.19,14261.57 9996.88,14200.41 9967.73,14140.52 10057.41,14111.68 10088.15,14022.63 10176.24,14142.74 10297.3,13965.28 10592.63,14206.76 10502.96,14235.58 10532.43,14265.69 10890.2,14239.71 10955.49,13704.17 10924.75,13793.22 10867.07,13613.86 11280.3,13975.75 11401.02,13828.08 11460.6,13828.71 " fill="#000000"/>
  </g>
  <g>
   <polygon class="fil0" points="13383.49,15100.42 13174.01,15187.57 13053.27,15335.24 13112.53,15365.66 13111.26,15484.81 13228.2,15694.6 13138.51,15723.43 13020.63,15603.01 12781.38,15689.84 12723.71,15510.47 12336.15,15536.13 12659.37,15956.65 12658.1,16075.81 12957.89,15900.25 12927.78,15929.72 13016.82,15960.46 13017.45,15900.88 13166.08,15932.26 13197.77,15753.86 13407.87,15607.13 13407.23,15666.71 13257.35,15754.49 13403.42,16024.16 13493.74,15935.75 13552.05,16055.54 13611.94,16026.38 13878.76,16148.39 14055.59,16329.02 14234.94,16271.36 14262.19,16509.97 14379.44,16689.97 14736.89,16693.78 14797.11,16634.84 14856.05,16695.05 14826.58,16664.94 14825.94,16724.51 14885.52,16725.14 14770.49,16336.63 14651.65,16305.58 14622.5,16245.69 14473.57,16244.11 14479.92,15648.35 14335.42,15229.73 14245.73,15258.57 14216.9,15168.89 14127.22,15197.72 14098.07,15137.83 14008.39,15166.66 14037.86,15196.77 13917.75,15284.87 13828.39,15283.91 13710.51,15163.49 13560.62,15251.27 13442.1,15190.42 13442.73,15130.85 " fill="#000000"/>
   <polygon id="1" class="fil1 str0" points="13383.49,15100.42 13174.01,15187.57 13053.27,15335.24 13112.53,15365.66 13111.26,15484.81 13228.2,15694.6 13138.51,15723.43 13020.63,15603.01 12781.38,15689.84 12723.71,15510.47 12336.15,15536.13 12659.37,15956.65 12658.1,16075.81 12957.89,15900.25 12927.78,15929.72 13016.82,15960.46 13017.45,15900.88 13166.08,15932.26 13197.77,15753.86 13407.87,15607.13 13407.23,15666.71 13257.35,15754.49 13403.42,16024.16 13493.74,15935.75 13552.05,16055.54 13611.94,16026.38 13878.76,16148.39 14055.59,16329.02 14234.94,16271.36 14262.19,16509.97 14379.44,16689.97 14736.89,16693.78 14797.11,16634.84 14856.05,16695.05 14826.58,16664.94 14825.94,16724.51 14885.52,16725.14 14770.49,16336.63 14651.65,16305.58 14622.5,16245.69 14473.57,16244.11 14479.92,15648.35 14335.42,15229.73 14245.73,15258.57 14216.9,15168.89 14127.22,15197.72 14098.07,15137.83 14008.39,15166.66 14037.86,15196.77 13917.75,15284.87 13828.39,15283.91 13710.51,15163.49 13560.62,15251.27 13442.1,15190.42 13442.73,15130.85 " fill="#000000"/>
  </g>
  <g>
   <polygon class="fil0" points="11986.99,11957.48 11627.95,12102.62 11472.03,12756.36 11290.77,12992.76 11379.18,13083.07 11349.07,13112.54 11556.95,13174.34 11587.05,13144.87 11764.2,13295.71 11613.67,13443.06 11908.69,13714.33 11788.26,13832.2 11874.77,14101.25 12021.18,14341.13 12170.12,14342.72 12109.27,14461.24 12106.74,14699.54 12374.19,14761.97 12462.6,14852.29 12371.01,15059.85 12636.56,15301.01 12576.36,15359.95 12723.71,15510.47 12781.38,15689.84 12961.06,15602.37 13020.63,15603.01 13138.51,15723.43 13228.2,15694.6 13053.27,15335.24 13264.01,15128.94 13353.7,15100.11 13560.62,15251.27 13710.51,15163.49 13828.39,15283.91 13977.33,15285.5 13977.96,15225.92 14098.07,15137.83 14127.22,15197.72 14216.9,15168.89 14245.73,15258.57 14454.89,15201.21 14543.94,15231.95 14933.4,15027.57 15110.85,15148.62 15439.15,15092.53 15175.82,14642.87 15148.89,14374.45 15298.15,14346.25 15123.86,13927.32 14974.29,13985.31 14740.74,13535.95 14710.64,13565.43 14622.55,13445.33 14506.57,13146.18 14508.16,12997.24 14447.95,13056.18 14419.11,12966.5 14359.22,12995.66 14300.59,12905.66 14420.06,12877.14 14361.12,12816.93 14391.23,12787.46 14272.07,12786.19 14154.51,12635.97 13471.93,12390.38 13112.89,12535.51 12964.91,12444.56 12755.76,12501.92 12578.31,12380.86 12611.27,12083.3 12404.02,11961.93 " fill="#000000"/>
   <polygon id="1" class="fil1 str2" points="11986.99,11957.48 11627.95,12102.62 11472.03,12756.36 11290.77,12992.76 11379.18,13083.07 11349.07,13112.54 11556.95,13174.34 11587.05,13144.87 11764.2,13295.71 11613.67,13443.06 11908.69,13714.33 11788.26,13832.2 11874.77,14101.25 12021.18,14341.13 12170.12,14342.72 12109.27,14461.24 12106.74,14699.54 12374.19,14761.97 12462.6,14852.29 12371.01,15059.85 12636.56,15301.01 12576.36,15359.95 12723.71,15510.47 12781.38,15689.84 12961.06,15602.37 13020.63,15603.01 13138.51,15723.43 13228.2,15694.6 13053.27,15335.24 13264.01,15128.94 13353.7,15100.11 13560.62,15251.27 13710.51,15163.49 13828.39,15283.91 13977.33,15285.5 13977.96,15225.92 14098.07,15137.83 14127.22,15197.72 14216.9,15168.89 14245.73,15258.57 14454.89,15201.21 14543.94,15231.95 14933.4,15027.57 15110.85,15148.62 15439.15,15092.53 15175.82,14642.87 15148.89,14374.45 15298.15,14346.25 15123.86,13927.32 14974.29,13985.31 14740.74,13535.95 14710.64,13565.43 14622.55,13445.33 14506.57,13146.18 14508.16,12997.24 14447.95,13056.18 14419.11,12966.5 14359.22,12995.66 14300.59,12905.66 14420.06,12877.14 14361.12,12816.93 14391.23,12787.46 14272.07,12786.19 14154.51,12635.97 13471.93,12390.38 13112.89,12535.51 12964.91,12444.56 12755.76,12501.92 12578.31,12380.86 12611.27,12083.3 12404.02,11961.93 " fill="#000000"/>
  </g>
  <g>
   <polygon class="fil0" points="9922.07,15629.58 9741.44,15806.41 9592.51,15804.82 9441.98,15952.17 9412.51,15922.06 9322.19,16010.48 9441.34,16011.75 9410.6,16100.79 9141.88,16157.52 9081.67,16216.46 9140.61,16276.66 8989.45,16483.59 9018.6,16543.49 9107.97,16544.44 9255.96,16635.39 9286.38,16576.13 9405.52,16577.4 9493.94,16667.71 9493.3,16727.28 9523.41,16697.81 9550.98,16906.65 9698.97,16997.6 9668.23,17086.64 9816.21,17177.59 9906.21,17118.97 9787.69,17058.12 9581.72,16817.6 9674.26,16520.68 9615.31,16460.47 9676.79,16282.37 9528.17,16251 9829.22,15956.29 9828.26,16045.66 9887.21,16105.87 10244.66,16109.68 10273.5,16199.36 10392.33,16230.42 10422.76,16171.16 10630.95,16203.17 10631.58,16143.59 10721.26,16114.76 10839.47,16205.39 10809.36,16234.86 10868.3,16295.06 11046.07,16386.33 11193.43,16536.86 11253.64,16477.92 11223.53,16507.39 11282.48,16567.6 11283.11,16508.03 11431.41,16569.19 11461.51,16539.72 11430.77,16628.77 11223.22,16537.18 11160.78,16804.63 11310.04,16776.43 11338.56,16895.9 11575.91,16987.81 11578.13,16779.29 11607.6,16809.39 11667.81,16750.45 11668.45,16690.87 11909.92,16395.54 12001.5,16187.98 11854.47,16007.66 11733.74,16155.34 11557.54,15915.12 11439.02,15854.28 11407.65,16002.9 11229.56,15941.42 11227.02,16179.73 11049.88,16028.88 10930.74,16027.61 11083.16,15701.54 10933.91,15729.74 10932.96,15819.1 10724.76,15787.09 10664.54,15846.03 10871.79,15967.4 10810.63,16115.71 10395.51,15932.54 10427.83,15694.56 10039.32,15809.58 10040.59,15690.43 9950.91,15719.27 9921.76,15659.37 " fill="#000000"/>
   <polygon id="1" class="fil1 str2" points="9922.07,15629.58 9741.44,15806.41 9592.51,15804.82 9441.98,15952.17 9412.51,15922.06 9322.19,16010.48 9441.34,16011.75 9410.6,16100.79 9141.88,16157.52 9081.67,16216.46 9140.61,16276.66 8989.45,16483.59 9018.6,16543.49 9107.97,16544.44 9255.96,16635.39 9286.38,16576.13 9405.52,16577.4 9493.94,16667.71 9493.3,16727.28 9523.41,16697.81 9550.98,16906.65 9698.97,16997.6 9668.23,17086.64 9816.21,17177.59 9906.21,17118.97 9787.69,17058.12 9581.72,16817.6 9674.26,16520.68 9615.31,16460.47 9676.79,16282.37 9528.17,16251 9829.22,15956.29 9828.26,16045.66 9887.21,16105.87 10244.66,16109.68 10273.5,16199.36 10392.33,16230.42 10422.76,16171.16 10630.95,16203.17 10631.58,16143.59 10721.26,16114.76 10839.47,16205.39 10809.36,16234.86 10868.3,16295.06 11046.07,16386.33 11193.43,16536.86 11253.64,16477.92 11223.53,16507.39 11282.48,16567.6 11283.11,16508.03 11431.41,16569.19 11461.51,16539.72 11430.77,16628.77 11223.22,16537.18 11160.78,16804.63 11310.04,16776.43 11338.56,16895.9 11575.91,16987.81 11578.13,16779.29 11607.6,16809.39 11667.81,16750.45 11668.45,16690.87 11909.92,16395.54 12001.5,16187.98 11854.47,16007.66 11733.74,16155.34 11557.54,15915.12 11439.02,15854.28 11407.65,16002.9 11229.56,15941.42 11227.02,16179.73 11049.88,16028.88 10930.74,16027.61 11083.16,15701.54 10933.91,15729.74 10932.96,15819.1 10724.76,15787.09 10664.54,15846.03 10871.79,15967.4 10810.63,16115.71 10395.51,15932.54 10427.83,15694.56 10039.32,15809.58 10040.59,15690.43 9950.91,15719.27 9921.76,15659.37 " fill="#000000"/>
  </g>
  <g>
   <polygon class="fil2" points="13920.25,17846.93 13830.25,17905.56 13738.67,18113.11 13618.25,18231 13616.35,18409.72 13556.77,18409.08 13350.8,18168.57 13231.01,18226.87 13113.13,18106.45 12964.18,18104.86 12903.67,18193.59 12931.55,18372.63 12812.4,18371.36 12781.66,18460.41 12930.28,18491.79 12899.86,18551.05 13077.94,18612.53 13283.61,18882.83 13521.9,18885.37 13755.76,19304.94 14139.84,19606.94 14261.84,19340.12 14114.81,19159.8 14145.23,19100.56 14233.63,19190.86 14412.36,19192.77 14413.32,19103.41 14473.21,19074.26 14328.39,18685.43 14478.29,18597.65 14419.35,18537.44 14509.03,18508.6 14419.98,18477.86 14391.14,18388.18 14331.57,18387.55 14451.99,18269.67 14334.74,18089.67 14364.85,18060.2 14306.54,17940.41 14277.07,17910.32 14216.86,17969.25 13948.77,17966.39 13978.88,17936.92 " fill="#000000"/>
   <polygon id="1" class="fil1 str0" points="13920.25,17846.93 13830.25,17905.56 13738.67,18113.11 13618.25,18231 13616.35,18409.72 13556.77,18409.08 13350.8,18168.57 13231.01,18226.87 13113.13,18106.45 12964.18,18104.86 12903.67,18193.59 12931.55,18372.63 12812.4,18371.36 12781.66,18460.41 12930.28,18491.79 12899.86,18551.05 13077.94,18612.53 13283.61,18882.83 13521.9,18885.37 13755.76,19304.94 14139.84,19606.94 14261.84,19340.12 14114.81,19159.8 14145.23,19100.56 14233.63,19190.86 14412.36,19192.77 14413.32,19103.41 14473.21,19074.26 14328.39,18685.43 14478.29,18597.65 14419.35,18537.44 14509.03,18508.6 14419.98,18477.86 14391.14,18388.18 14331.57,18387.55 14451.99,18269.67 14334.74,18089.67 14364.85,18060.2 14306.54,17940.41 14277.07,17910.32 14216.86,17969.25 13948.77,17966.39 13978.88,17936.92 " fill="#000000"/>
  </g>
  <g>
   <polygon class="fil0" points="12964.5,18075.07 13083.02,18135.92 13113.13,18106.45 13171.75,18196.45 13321.01,18168.25 13439.52,18229.09 13526.98,18408.77 13586.56,18409.4 13618.25,18231 13768.77,18083.64 13860.36,17876.09 13920.25,17846.93 13978.88,17936.92 13948.77,17966.39 14216.86,17969.25 14277.07,17910.32 14305.9,17999.99 14395.59,17971.15 14311.62,17463.82 14549.92,17466.36 14581.3,17317.73 14700.44,17319 14759.07,17409 14879.49,17291.12 14792.35,17081.65 14941.29,17083.24 14913.09,16933.98 14677,16722.92 14677.64,16663.36 14498.92,16661.45 14229.87,16747.95 13575.17,16681.4 13691.79,16920.97 13452.53,17007.8 13363.18,17006.85 13364.45,16887.69 13006.98,16883.88 13005.4,17032.83 13064.66,17063.25 13063.7,17152.6 12852.97,17358.9 12879.91,17627.31 12728.11,17893.82 12966.72,17866.57 12934.41,18104.55 " fill="#000000"/>
   <polygon id="1" class="fil1 str0" points="12964.5,18075.07 13083.02,18135.92 13113.13,18106.45 13171.75,18196.45 13321.01,18168.25 13439.52,18229.09 13526.98,18408.77 13586.56,18409.4 13618.25,18231 13768.77,18083.64 13860.36,17876.09 13920.25,17846.93 13978.88,17936.92 13948.77,17966.39 14216.86,17969.25 14277.07,17910.32 14305.9,17999.99 14395.59,17971.15 14311.62,17463.82 14549.92,17466.36 14581.3,17317.73 14700.44,17319 14759.07,17409 14879.49,17291.12 14792.35,17081.65 14941.29,17083.24 14913.09,16933.98 14677,16722.92 14677.64,16663.36 14498.92,16661.45 14229.87,16747.95 13575.17,16681.4 13691.79,16920.97 13452.53,17007.8 13363.18,17006.85 13364.45,16887.69 13006.98,16883.88 13005.4,17032.83 13064.66,17063.25 13063.7,17152.6 12852.97,17358.9 12879.91,17627.31 12728.11,17893.82 12966.72,17866.57 12934.41,18104.55 " fill="#000000"/>
  </g>
  <g>
   <polygon class="fil2" points="12755.67,18102.64 12756.31,18043.06 12667.9,17952.75 12608.32,17952.11 12578.21,17981.58 12665.67,18161.27 12604.83,18279.79 12486.95,18159.36 12395.68,18337.13 12247.69,18246.19 12096.86,18423.32 11947.6,18451.53 11887.07,18540.26 11502.68,18268.05 11442.79,18297.19 11440.57,18505.71 11141.43,18621.69 11318.25,18802.31 11287.2,18921.15 11344.54,19130.29 11880.72,19136 11879.45,19255.16 11938.4,19315.37 11968.5,19285.9 11907.65,19404.42 12024.91,19584.41 11995.75,19524.51 12173.84,19586 12533.2,19411.08 12592.77,19411.72 12562.03,19500.77 12800.97,19443.73 12801.61,19384.15 13042.44,19148.38 13043.08,19088.81 13072.55,19118.92 13075.4,18850.82 13283.61,18882.83 13077.94,18612.53 12899.86,18551.05 12930.28,18491.79 12781.34,18490.2 12812.08,18401.15 12931.23,18402.42 12903.35,18223.38 12964.5,18075.07 12724.93,18191.69 12725.57,18132.11 " fill="#000000"/>
   <polygon id="1" class="fil1 str0" points="12755.67,18102.64 12756.31,18043.06 12667.9,17952.75 12608.32,17952.11 12578.21,17981.58 12665.67,18161.27 12604.83,18279.79 12486.95,18159.36 12395.68,18337.13 12247.69,18246.19 12096.86,18423.32 11947.6,18451.53 11887.07,18540.26 11502.68,18268.05 11442.79,18297.19 11440.57,18505.71 11141.43,18621.69 11318.25,18802.31 11287.2,18921.15 11344.54,19130.29 11880.72,19136 11879.45,19255.16 11938.4,19315.37 11968.5,19285.9 11907.65,19404.42 12024.91,19584.41 11995.75,19524.51 12173.84,19586 12533.2,19411.08 12592.77,19411.72 12562.03,19500.77 12800.97,19443.73 12801.61,19384.15 13042.44,19148.38 13043.08,19088.81 13072.55,19118.92 13075.4,18850.82 13283.61,18882.83 13077.94,18612.53 12899.86,18551.05 12930.28,18491.79 12781.34,18490.2 12812.08,18401.15 12931.23,18402.42 12903.35,18223.38 12964.5,18075.07 12724.93,18191.69 12725.57,18132.11 " fill="#000000"/>
  </g>
  <g>
   <polygon class="fil2" points="15229.64,17980.04 15170.07,17979.4 15169.43,18038.98 14959.34,18185.7 14869.97,18184.75 14395.59,17971.15 14305.9,17999.99 14451.99,18269.67 14331.57,18387.55 14391.14,18388.18 14419.98,18477.86 14509.03,18508.6 14419.35,18537.44 14478.29,18597.65 14358.18,18685.75 14385.75,18894.57 14473.21,19074.26 14413.32,19103.41 14381.94,19252.03 14175.01,19100.87 14115.13,19130.03 14114.49,19189.59 14232.68,19280.23 14170.25,19547.68 14079.62,19665.88 14138.57,19726.09 14317.29,19728 14376.23,19788.21 14465.91,19759.37 14466.55,19699.8 14526.12,19700.43 14556.86,19611.38 14735.59,19613.29 14853.47,19733.71 14913.05,19734.34 14945.06,19526.15 15004.62,19526.79 15035.36,19437.74 15006.53,19348.06 15096.84,19259.64 15069.28,19050.82 15129.49,18991.87 15425.78,19143.99 15546.2,19026.11 15546.83,18966.53 15636.52,18937.69 15579.48,18698.76 15788.32,18671.19 15848.83,18582.46 15731.28,18432.25 15791.49,18373.31 15674.56,18163.53 15318.06,18070.36 " fill="#000000"/>
   <polygon id="1" class="fil1 str0" points="15229.64,17980.04 15170.07,17979.4 15169.43,18038.98 14959.34,18185.7 14869.97,18184.75 14395.59,17971.15 14305.9,17999.99 14451.99,18269.67 14331.57,18387.55 14391.14,18388.18 14419.98,18477.86 14509.03,18508.6 14419.35,18537.44 14478.29,18597.65 14358.18,18685.75 14385.75,18894.57 14473.21,19074.26 14413.32,19103.41 14381.94,19252.03 14175.01,19100.87 14115.13,19130.03 14114.49,19189.59 14232.68,19280.23 14170.25,19547.68 14079.62,19665.88 14138.57,19726.09 14317.29,19728 14376.23,19788.21 14465.91,19759.37 14466.55,19699.8 14526.12,19700.43 14556.86,19611.38 14735.59,19613.29 14853.47,19733.71 14913.05,19734.34 14945.06,19526.15 15004.62,19526.79 15035.36,19437.74 15006.53,19348.06 15096.84,19259.64 15069.28,19050.82 15129.49,18991.87 15425.78,19143.99 15546.2,19026.11 15546.83,18966.53 15636.52,18937.69 15579.48,18698.76 15788.32,18671.19 15848.83,18582.46 15731.28,18432.25 15791.49,18373.31 15674.56,18163.53 15318.06,18070.36 " fill="#000000"/>
  </g>
  <g>
   <polygon class="fil0" points="11728.38,13861.36 11639.65,13800.84 11549.33,13889.24 11401.02,13828.08 11280.61,13945.96 10867.07,13613.86 10924.75,13793.22 10955.49,13704.17 10890.2,14239.71 10502.64,14265.37 10592.95,14176.97 10297.3,13965.28 10176.24,14142.74 10088.15,14022.63 10057.41,14111.68 9937.94,14140.2 10145.19,14261.57 9936.35,14289.13 9992.44,14617.44 10081.49,14648.17 10167.99,14917.22 9957.89,15063.93 10016.2,15183.72 9808,15151.71 10042.18,15541.49 10428.78,15605.19 10489.63,15486.67 10668.03,15518.36 10967.18,15402.39 10968.76,15253.45 10853.11,14924.52 10913.32,14865.58 11002.68,14866.53 11065.75,14539.5 11303.42,14601.62 11336.06,14333.84 11485.31,14305.63 11697.01,14009.98 11874.46,14131.04 11788.26,13832.2 11758.17,13861.67 " fill="#000000"/>
   <polygon id="1" class="fil1 str2" points="11728.38,13861.36 11639.65,13800.84 11549.33,13889.24 11401.02,13828.08 11280.61,13945.96 10867.07,13613.86 10924.75,13793.22 10955.49,13704.17 10890.2,14239.71 10502.64,14265.37 10592.95,14176.97 10297.3,13965.28 10176.24,14142.74 10088.15,14022.63 10057.41,14111.68 9937.94,14140.2 10145.19,14261.57 9936.35,14289.13 9992.44,14617.44 10081.49,14648.17 10167.99,14917.22 9957.89,15063.93 10016.2,15183.72 9808,15151.71 10042.18,15541.49 10428.78,15605.19 10489.63,15486.67 10668.03,15518.36 10967.18,15402.39 10968.76,15253.45 10853.11,14924.52 10913.32,14865.58 11002.68,14866.53 11065.75,14539.5 11303.42,14601.62 11336.06,14333.84 11485.31,14305.63 11697.01,14009.98 11874.46,14131.04 11788.26,13832.2 11758.17,13861.67 " fill="#000000"/>
  </g>
  <g>
   <polygon class="fil0" points="9602.34,14881.4 9482.87,14909.92 9543.4,14821.19 9218.28,14579.4 9159.33,14519.19 9160.29,14429.82 8891.25,14516.33 8890.3,14605.7 8830.09,14664.63 8651.04,14692.52 8530.61,14810.4 8529.98,14869.98 8677.02,15050.28 8614.9,15287.96 8703,15408.06 8702.05,15497.42 8582.26,15555.73 8609.19,15824.13 8845.91,15975.61 8724.85,16153.07 8723.27,16302 8870.3,16482.32 8929.87,16482.96 8930.51,16423.38 8989.45,16483.59 9019.55,16454.12 9020.19,16394.54 9140.61,16276.66 9081.67,16216.46 9141.88,16157.52 9350.71,16129.95 9441.02,16041.54 9322.19,16010.48 9412.51,15922.06 9441.98,15952.17 9592.51,15804.82 9741.44,15806.41 9922.39,15599.8 9863.45,15539.58 9983.55,15451.49 9808,15151.71 9986.41,15183.4 9957.89,15063.93 10167.67,14947.01 10081.49,14648.17 9844.45,14526.49 9663.51,14733.09 9632.45,14851.93 " fill="#000000"/>
   <polygon id="1" class="fil1 str1" points="9602.34,14881.4 9482.87,14909.92 9543.4,14821.19 9218.28,14579.4 9159.33,14519.19 9160.29,14429.82 8891.25,14516.33 8890.3,14605.7 8830.09,14664.63 8651.04,14692.52 8530.61,14810.4 8529.98,14869.98 8677.02,15050.28 8614.9,15287.96 8703,15408.06 8702.05,15497.42 8582.26,15555.73 8609.19,15824.13 8845.91,15975.61 8724.85,16153.07 8723.27,16302 8870.3,16482.32 8929.87,16482.96 8930.51,16423.38 8989.45,16483.59 9019.55,16454.12 9020.19,16394.54 9140.61,16276.66 9081.67,16216.46 9141.88,16157.52 9350.71,16129.95 9441.02,16041.54 9322.19,16010.48 9412.51,15922.06 9441.98,15952.17 9592.51,15804.82 9741.44,15806.41 9922.39,15599.8 9863.45,15539.58 9983.55,15451.49 9808,15151.71 9986.41,15183.4 9957.89,15063.93 10167.67,14947.01 10081.49,14648.17 9844.45,14526.49 9663.51,14733.09 9632.45,14851.93 " fill="#000000"/>
  </g>
  <g>
   <polygon class="fil0" points="13551.73,16085.33 13552.69,15995.96 13493.74,15935.75 13403.42,16024.16 13257.35,15754.49 13377.14,15696.18 13407.87,15607.13 13167.67,15783.33 13195.87,15932.58 13047.24,15901.2 13046.61,15960.78 12957.57,15930.04 12747.78,16046.97 13013.01,16317.91 13010.79,16526.43 13129.31,16587.28 12920.17,16644.63 12917.95,16853.14 12799.74,16762.51 12827.63,16941.56 13005.08,17062.61 13006.98,16883.88 13334.66,16887.37 13363.49,16977.06 13452.53,17007.8 13691.79,16920.97 13545.39,16681.09 14051.15,16746.05 14319.23,16748.9 14379.44,16689.97 14233.04,16450.08 14234.94,16271.36 14175.38,16270.72 14174.74,16330.29 14085.38,16329.34 13908.55,16148.71 13611.94,16026.38 " fill="#000000"/>
   <polygon id="1" class="fil1 str0" points="13551.73,16085.33 13552.69,15995.96 13493.74,15935.75 13403.42,16024.16 13257.35,15754.49 13377.14,15696.18 13407.87,15607.13 13167.67,15783.33 13195.87,15932.58 13047.24,15901.2 13046.61,15960.78 12957.57,15930.04 12747.78,16046.97 13013.01,16317.91 13010.79,16526.43 13129.31,16587.28 12920.17,16644.63 12917.95,16853.14 12799.74,16762.51 12827.63,16941.56 13005.08,17062.61 13006.98,16883.88 13334.66,16887.37 13363.49,16977.06 13452.53,17007.8 13691.79,16920.97 13545.39,16681.09 14051.15,16746.05 14319.23,16748.9 14379.44,16689.97 14233.04,16450.08 14234.94,16271.36 14175.38,16270.72 14174.74,16330.29 14085.38,16329.34 13908.55,16148.71 13611.94,16026.38 " fill="#000000"/>
  </g>
 </g>
</svg>